<svg width="155" height="34" viewBox="0 0 155 34" fill="none" xmlns="http://www.w3.org/2000/svg">
<path d="M1.46115 25.5V8.68861H12.5921V11.6191H5.01551V15.625H11.8533V18.5555H5.01551V25.5H1.46115ZM14.9172 25.5V12.8915H18.4141V25.5H14.9172ZM16.6739 11.2661C16.154 11.2661 15.708 11.0938 15.3359 10.749C14.9692 10.3988 14.7859 9.98011 14.7859 9.49307C14.7859 9.01149 14.9692 8.59832 15.3359 8.25356C15.708 7.90332 16.154 7.7282 16.6739 7.7282C17.1938 7.7282 17.637 7.90332 18.0037 8.25356C18.3758 8.59832 18.5619 9.01149 18.5619 9.49307C18.5619 9.98011 18.3758 10.3988 18.0037 10.749C17.637 11.0938 17.1938 11.2661 16.6739 11.2661ZM27.9957 12.8915V15.5182H20.2139V12.8915H27.9957ZM21.9952 25.5V11.9803C21.9952 11.0664 22.173 10.3085 22.5287 9.70649C22.8899 9.10452 23.3824 8.65304 24.0063 8.35206C24.6302 8.05107 25.3388 7.90058 26.1323 7.90058C26.6686 7.90058 27.1584 7.94162 27.6017 8.02371C28.0504 8.1058 28.3843 8.17968 28.6032 8.24535L27.9793 10.8721C27.8425 10.8283 27.6728 10.7873 27.4704 10.749C27.2734 10.7107 27.0709 10.6915 26.8629 10.6915C26.3485 10.6915 25.9901 10.8119 25.7876 11.0527C25.5851 11.288 25.4839 11.6191 25.4839 12.046V25.5H21.9952ZM36.8385 12.8915V15.5182H29.2455V12.8915H36.8385ZM30.9693 9.87067H34.4662V21.6255C34.4662 21.9484 34.5155 22.2001 34.614 22.3807C34.7125 22.5558 34.8493 22.6789 35.0244 22.7501C35.205 22.8212 35.4129 22.8568 35.6483 22.8568C35.8124 22.8568 35.9766 22.8431 36.1408 22.8158C36.305 22.7829 36.4308 22.7583 36.5184 22.7419L37.0684 25.344C36.8932 25.3988 36.647 25.4617 36.3296 25.5328C36.0122 25.6094 35.6264 25.656 35.1722 25.6724C34.3294 25.7052 33.5906 25.593 32.9558 25.3358C32.3265 25.0786 31.8367 24.6791 31.4865 24.1374C31.1362 23.5956 30.9638 22.9115 30.9693 22.0852V9.87067ZM42.8842 18.2107V25.5H39.3873V8.68861H42.7857V15.116H42.9335C43.218 14.3718 43.6777 13.7889 44.3125 13.3676C44.9473 12.9407 45.7436 12.7273 46.7013 12.7273C47.5768 12.7273 48.3403 12.9188 48.9915 13.3019C49.6482 13.6795 50.1571 14.224 50.5183 14.9354C50.8849 15.6414 51.0655 16.4869 51.0601 17.4719V25.5H47.5632V18.0958C47.5686 17.3187 47.3716 16.714 46.9721 16.2816C46.5781 15.8493 46.0254 15.6332 45.314 15.6332C44.8379 15.6332 44.4165 15.7344 44.0498 15.9369C43.6887 16.1394 43.4041 16.4349 43.1961 16.8234C42.9937 17.2065 42.8897 17.6689 42.8842 18.2107Z" fill="#EF8435"/>
<path d="M52.1764 11.6191V8.68861H65.9835V11.6191H60.8366V25.5H57.3233V11.6191H52.1764ZM66.8823 25.5V12.8915H70.2725V15.0914H70.4038C70.6337 14.3088 71.0195 13.7178 71.5613 13.3183C72.103 12.9134 72.7269 12.7109 73.4328 12.7109C73.608 12.7109 73.7968 12.7218 73.9992 12.7437C74.2017 12.7656 74.3796 12.7957 74.5328 12.834V15.9369C74.3686 15.8876 74.1415 15.8439 73.8515 15.8055C73.5614 15.7672 73.296 15.7481 73.0552 15.7481C72.5408 15.7481 72.0811 15.8603 71.6762 16.0846C71.2767 16.3035 70.9593 16.61 70.724 17.004C70.4941 17.398 70.3792 17.8522 70.3792 18.3667V25.5H66.8823ZM78.8834 30.2282C78.4401 30.2282 78.0242 30.1926 77.6357 30.1215C77.2526 30.0558 76.9352 29.971 76.6835 29.867L77.4715 27.2567C77.8819 27.3825 78.2513 27.4509 78.5797 27.4619C78.9135 27.4728 79.2008 27.3962 79.4416 27.232C79.6879 27.0679 79.8876 26.7888 80.0408 26.3947L80.246 25.8612L75.7231 12.8915H79.4005L82.0109 22.1509H82.1422L84.7772 12.8915H88.4794L83.5788 26.8626C83.3435 27.5412 83.0233 28.1323 82.6184 28.6357C82.2189 29.1447 81.7127 29.5359 81.0997 29.8096C80.4868 30.0887 79.748 30.2282 78.8834 30.2282Z" fill="#333333"/>
<path d="M101.92 17.346L100.47 17.7565C100.379 17.5148 100.244 17.2799 100.066 17.0519C99.893 16.8193 99.6559 16.6278 99.3549 16.4773C99.0539 16.3268 98.6686 16.2515 98.1988 16.2515C97.5558 16.2515 97.02 16.3998 96.5913 16.6962C96.1672 16.988 95.9551 17.3597 95.9551 17.8112C95.9551 18.2125 96.1011 18.5295 96.3929 18.762C96.6848 18.9946 97.1408 19.1884 97.761 19.3435L99.3207 19.7266C100.26 19.9546 100.96 20.3034 101.421 20.7732C101.881 21.2383 102.112 21.838 102.112 22.5722C102.112 23.1742 101.938 23.7123 101.592 24.1866C101.25 24.6609 100.771 25.0348 100.155 25.3085C99.5396 25.5821 98.8236 25.7189 98.0073 25.7189C96.9356 25.7189 96.0486 25.4863 95.3463 25.0212C94.644 24.556 94.1994 23.8765 94.0124 22.9827L95.5447 22.5996C95.6906 23.1651 95.9665 23.5892 96.3724 23.8719C96.7828 24.1547 97.3187 24.2961 97.9799 24.2961C98.7324 24.2961 99.3298 24.1364 99.7722 23.8172C100.219 23.4934 100.443 23.1058 100.443 22.6543C100.443 22.2895 100.315 21.9839 100.059 21.7377C99.8041 21.4869 99.4119 21.2999 98.8829 21.1768L97.1317 20.7663C96.1695 20.5383 95.4626 20.1849 95.0111 19.706C94.5642 19.2226 94.3408 18.6184 94.3408 17.8933C94.3408 17.3004 94.5072 16.776 94.8401 16.32C95.1776 15.8639 95.6359 15.5059 96.2151 15.246C96.7988 14.986 97.4601 14.8561 98.1988 14.8561C99.2386 14.8561 100.055 15.0841 100.648 15.5401C101.245 15.9962 101.669 16.5981 101.92 17.346ZM109.111 14.9929V16.361H103.666V14.9929H109.111ZM105.253 12.4756H106.868V22.4901C106.868 22.9462 106.934 23.2882 107.066 23.5162C107.203 23.7397 107.376 23.8902 107.586 23.9677C107.8 24.0407 108.026 24.0772 108.263 24.0772C108.441 24.0772 108.587 24.068 108.701 24.0498C108.815 24.027 108.906 24.0088 108.974 23.9951L109.303 25.4453C109.193 25.4863 109.041 25.5274 108.844 25.5684C108.648 25.614 108.4 25.6368 108.099 25.6368C107.643 25.6368 107.196 25.5388 106.758 25.3427C106.325 25.1466 105.965 24.8479 105.677 24.4466C105.395 24.0452 105.253 23.539 105.253 22.9279V12.4756ZM115.695 25.7189C114.747 25.7189 113.914 25.4932 113.198 25.0417C112.487 24.5902 111.931 23.9586 111.529 23.1468C111.133 22.3351 110.934 21.3865 110.934 20.3012C110.934 19.2067 111.133 18.2513 111.529 17.435C111.931 16.6187 112.487 15.9848 113.198 15.5333C113.914 15.0818 114.747 14.8561 115.695 14.8561C116.644 14.8561 117.474 15.0818 118.185 15.5333C118.901 15.9848 119.458 16.6187 119.854 17.435C120.256 18.2513 120.456 19.2067 120.456 20.3012C120.456 21.3865 120.256 22.3351 119.854 23.1468C119.458 23.9586 118.901 24.5902 118.185 25.0417C117.474 25.4932 116.644 25.7189 115.695 25.7189ZM115.695 24.2687C116.416 24.2687 117.009 24.084 117.474 23.7146C117.939 23.3452 118.283 22.8595 118.507 22.2576C118.73 21.6556 118.842 21.0035 118.842 20.3012C118.842 19.5989 118.73 18.9445 118.507 18.3379C118.283 17.7314 117.939 17.2412 117.474 16.8672C117.009 16.4932 116.416 16.3063 115.695 16.3063C114.975 16.3063 114.382 16.4932 113.917 16.8672C113.452 17.2412 113.107 17.7314 112.884 18.3379C112.66 18.9445 112.549 19.5989 112.549 20.3012C112.549 21.0035 112.66 21.6556 112.884 22.2576C113.107 22.8595 113.452 23.3452 113.917 23.7146C114.382 24.084 114.975 24.2687 115.695 24.2687ZM122.921 25.5V14.9929H124.48V16.5799H124.59C124.781 16.06 125.128 15.6382 125.63 15.3144C126.131 14.9906 126.697 14.8287 127.326 14.8287C127.445 14.8287 127.593 14.831 127.771 14.8355C127.948 14.8401 128.083 14.847 128.174 14.8561V16.4978C128.119 16.4841 127.994 16.4636 127.798 16.4362C127.606 16.4043 127.404 16.3884 127.189 16.3884C126.678 16.3884 126.222 16.4955 125.821 16.7099C125.424 16.9196 125.11 17.2115 124.877 17.5855C124.649 17.9548 124.535 18.3767 124.535 18.851V25.5H122.921ZM130.088 25.5V14.9929H131.702V25.5H130.088ZM130.909 13.2417C130.594 13.2417 130.323 13.1345 130.095 12.9202C129.871 12.7059 129.76 12.4482 129.76 12.1472C129.76 11.8462 129.871 11.5886 130.095 11.3742C130.323 11.1599 130.594 11.0527 130.909 11.0527C131.223 11.0527 131.492 11.1599 131.716 11.3742C131.944 11.5886 132.058 11.8462 132.058 12.1472C132.058 12.4482 131.944 12.7059 131.716 12.9202C131.492 13.1345 131.223 13.2417 130.909 13.2417ZM139.064 25.7189C138.052 25.7189 137.179 25.4954 136.444 25.0485C135.715 24.597 135.152 23.9677 134.755 23.1605C134.363 22.3488 134.167 21.4048 134.167 20.3285C134.167 19.2523 134.363 18.3037 134.755 17.4829C135.152 16.6574 135.703 16.0144 136.41 15.5538C137.122 15.0887 137.952 14.8561 138.9 14.8561C139.447 14.8561 139.988 14.9473 140.521 15.1297C141.055 15.3121 141.541 15.6085 141.978 16.019C142.416 16.4248 142.765 16.963 143.025 17.6333C143.285 18.3037 143.415 19.1291 143.415 20.1096V20.7937H135.316V19.3982H141.773C141.773 18.8054 141.655 18.2764 141.418 17.8112C141.185 17.346 140.852 16.9789 140.419 16.7099C139.99 16.4408 139.484 16.3063 138.9 16.3063C138.257 16.3063 137.701 16.4659 137.231 16.7851C136.766 17.0998 136.408 17.5102 136.157 18.0164C135.906 18.5226 135.781 19.0653 135.781 19.6445V20.5748C135.781 21.3683 135.918 22.041 136.191 22.5928C136.47 23.14 136.855 23.5573 137.347 23.8446C137.84 24.1273 138.412 24.2687 139.064 24.2687C139.489 24.2687 139.872 24.2094 140.214 24.0908C140.56 23.9677 140.859 23.7853 141.11 23.5436C141.361 23.2973 141.554 22.9918 141.691 22.627L143.251 23.0648C143.087 23.5938 142.811 24.0589 142.423 24.4602C142.035 24.857 141.557 25.1671 140.987 25.3906C140.417 25.6094 139.776 25.7189 139.064 25.7189ZM153.313 17.346L151.863 17.7565C151.772 17.5148 151.637 17.2799 151.46 17.0519C151.286 16.8193 151.049 16.6278 150.748 16.4773C150.447 16.3268 150.062 16.2515 149.592 16.2515C148.949 16.2515 148.413 16.3998 147.985 16.6962C147.56 16.988 147.348 17.3597 147.348 17.8112C147.348 18.2125 147.494 18.5295 147.786 18.762C148.078 18.9946 148.534 19.1884 149.154 19.3435L150.714 19.7266C151.653 19.9546 152.353 20.3034 152.814 20.7732C153.275 21.2383 153.505 21.838 153.505 22.5722C153.505 23.1742 153.332 23.7123 152.985 24.1866C152.643 24.6609 152.164 25.0348 151.548 25.3085C150.933 25.5821 150.217 25.7189 149.401 25.7189C148.329 25.7189 147.442 25.4863 146.74 25.0212C146.037 24.556 145.593 23.8765 145.406 22.9827L146.938 22.5996C147.084 23.1651 147.36 23.5892 147.766 23.8719C148.176 24.1547 148.712 24.2961 149.373 24.2961C150.126 24.2961 150.723 24.1364 151.165 23.8172C151.612 23.4934 151.836 23.1058 151.836 22.6543C151.836 22.2895 151.708 21.9839 151.453 21.7377C151.197 21.4869 150.805 21.2999 150.276 21.1768L148.525 20.7663C147.563 20.5383 146.856 20.1849 146.404 19.706C145.957 19.2226 145.734 18.6184 145.734 17.8933C145.734 17.3004 145.9 16.776 146.233 16.32C146.571 15.8639 147.029 15.5059 147.608 15.246C148.192 14.986 148.853 14.8561 149.592 14.8561C150.632 14.8561 151.448 15.0841 152.041 15.5401C152.638 15.9962 153.062 16.5981 153.313 17.346Z" fill="#333333"/>
</svg>
