<svg width="24" height="25" viewBox="0 0 24 25" fill="none" xmlns="http://www.w3.org/2000/svg">
<path d="M6.29128 8.36L10.1813 12.25L6.29128 16.14C5.90128 16.53 5.90128 17.16 6.29128 17.55C6.68128 17.94 7.31128 17.94 7.70128 17.55L12.2913 12.96C12.6813 12.57 12.6813 11.94 12.2913 11.55L7.70128 6.95C7.31128 6.56 6.68128 6.56 6.29128 6.95C5.91128 7.34 5.91128 7.98 6.29128 8.36ZM17.0013 6.25C17.5513 6.25 18.0013 6.7 18.0013 7.25V17.25C18.0013 17.8 17.5513 18.25 17.0013 18.25C16.4513 18.25 16.0013 17.8 16.0013 17.25V7.25C16.0013 6.7 16.4513 6.25 17.0013 6.25Z" fill="#B8B8B8"/>
</svg>
