<svg width="36" height="36" viewBox="0 0 36 36" fill="none" xmlns="http://www.w3.org/2000/svg">
<g filter="url(#filter0_d_1245_10292)">
<path d="M2 4.2C2 3.0799 2 2.51984 2.21799 2.09202C2.40973 1.71569 2.71569 1.40973 3.09202 1.21799C3.51984 1 4.07989 1 5.2 1H30.8C31.9201 1 32.4802 1 32.908 1.21799C33.2843 1.40973 33.5903 1.71569 33.782 2.09202C34 2.51984 34 3.07989 34 4.2V29.8C34 30.9201 34 31.4802 33.782 31.908C33.5903 32.2843 33.2843 32.5903 32.908 32.782C32.4802 33 31.9201 33 30.8 33H5.2C4.0799 33 3.51984 33 3.09202 32.782C2.71569 32.5903 2.40973 32.2843 2.21799 31.908C2 31.4802 2 30.9201 2 29.8V4.2Z" fill="#F9F9F9"/>
<path d="M5.2 1.5H30.8C31.3683 1.5 31.7645 1.50039 32.0729 1.52559C32.3755 1.55031 32.5493 1.5964 32.681 1.66349C32.9632 1.8073 33.1927 2.03677 33.3365 2.31901C33.4036 2.45069 33.4497 2.62454 33.4744 2.92712C33.4996 3.23554 33.5 3.6317 33.5 4.2V29.8C33.5 30.3683 33.4996 30.7645 33.4744 31.0729C33.4497 31.3755 33.4036 31.5493 33.3365 31.681C33.1927 31.9632 32.9632 32.1927 32.681 32.3365C32.5493 32.4036 32.3755 32.4497 32.0729 32.4744C31.7645 32.4996 31.3683 32.5 30.8 32.5H5.2C4.6317 32.5 4.23554 32.4996 3.92712 32.4744C3.62454 32.4497 3.45069 32.4036 3.31901 32.3365C3.03677 32.1927 2.8073 31.9632 2.66349 31.681C2.5964 31.5493 2.55031 31.3755 2.52559 31.0729C2.50039 30.7645 2.5 30.3683 2.5 29.8V4.2C2.5 3.6317 2.50039 3.23554 2.52559 2.92712C2.55031 2.62454 2.5964 2.45069 2.66349 2.31901C2.8073 2.03677 3.03677 1.8073 3.31901 1.66349C3.45069 1.5964 3.62454 1.55031 3.92712 1.52559C4.23554 1.50039 4.6317 1.5 5.2 1.5Z" stroke="#B0AEAC"/>
<path d="M17.1931 9.52231C13.4431 9.93064 10.5181 13.114 10.5181 16.9806C10.5181 21.1223 13.8764 24.4806 18.0181 24.4806C21.8764 24.4806 25.0597 21.564 25.4764 17.814C25.5514 17.1556 24.8264 16.6306 24.1931 17.0223C23.4931 17.4723 22.6597 17.7306 21.7681 17.7306C19.2847 17.7306 17.2681 15.714 17.2681 13.2306C17.2681 12.3473 17.5264 11.514 17.9681 10.8223C18.3431 10.264 17.9347 9.46397 17.1931 9.52231Z" fill="#333333"/>
</g>
<defs>
<filter id="filter0_d_1245_10292" x="0" y="0" width="36" height="36" filterUnits="userSpaceOnUse" color-interpolation-filters="sRGB">
<feFlood flood-opacity="0" result="BackgroundImageFix"/>
<feColorMatrix in="SourceAlpha" type="matrix" values="0 0 0 0 0 0 0 0 0 0 0 0 0 0 0 0 0 0 127 0" result="hardAlpha"/>
<feOffset dy="1"/>
<feGaussianBlur stdDeviation="1"/>
<feComposite in2="hardAlpha" operator="out"/>
<feColorMatrix type="matrix" values="0 0 0 0 0.0627451 0 0 0 0 0.0941176 0 0 0 0 0.156863 0 0 0 0.04 0"/>
<feBlend mode="normal" in2="BackgroundImageFix" result="effect1_dropShadow_1245_10292"/>
<feBlend mode="normal" in="SourceGraphic" in2="effect1_dropShadow_1245_10292" result="shape"/>
</filter>
</defs>
</svg>
