<svg width="804" height="127" viewBox="0 0 804 127" fill="none" xmlns="http://www.w3.org/2000/svg">
<path d="M97 15.9C96 22.2 90.6 26.9 84.2 26.9H37.5L69 81.5L62.7 92.5L18.4 15.9H97ZM69.4 110.3L77 97.2L132.2 1.7C126.2 -0.599999 119.4 1.8 116.3 7.4L72.4 83.2V83.3L64.3 97.4V97.5C64.2 97.6 64.2 97.7 64.1 97.8L64 97.9C63.9 98 63.8 98.1 63.6 98.2C63.5 98.3 63.3 98.3 63.2 98.4C63 98.5 62.8 98.5 62.6 98.5C62.4 98.5 62.2 98.5 62 98.4C61.9 98.4 61.7 98.3 61.6 98.2C61.5 98.1 61.3 98 61.2 97.9L61.1 97.8C61 97.7 60.9 97.6 60.9 97.5V97.4L13.3 14.9V14.8C13.3 14.7 13.2 14.7 13.2 14.6C13.2 14.5 13.2 14.5 13.1 14.4V13.4C13.1 13.3 13.1 13.3 13.2 13.2C13.2 13.1 13.2 13.1 13.3 13C13.3 12.9 13.4 12.9 13.4 12.8C13.4 12.7 13.5 12.7 13.5 12.6C13.5 12.5 13.5 12.5 13.6 12.5L13.7 12.4L13.8 12.3C13.9 12.3 13.9 12.2 14 12.2H14.2C14.3 12.2 14.3 12.1 14.4 12.1C14.5 12.1 14.5 12.1 14.6 12H97.1C96.1 5.7 90.7 1 84.3 1H13.7C13.4 1 13.1 1.1 12.8 1.1C12.7 1.1 12.6 1.1 12.5 1.2C12.1 1.3 11.7 1.4 11.4 1.5H11.3C10.4 1.8 9.49999 2.2 8.69999 2.7C6.69999 3.9 4.99999 5.7 3.79999 7.8V7.9C3.59999 8.2 3.49999 8.6 3.29999 8.9C3.29999 9 3.19999 9.1 3.19999 9.2L2.99999 10C2.99999 10.1 2.89999 10.3 2.89999 10.4C2.79999 10.6 2.79999 10.9 2.69999 11.2C2.69999 11.4 2.59999 11.5 2.59999 11.7C2.59999 11.9 2.49999 12.2 2.49999 12.4C2.49999 12.6 2.39999 12.8 2.39999 13V15.5C2.39999 15.7 2.49999 15.8 2.49999 16C2.49999 16.3 2.59999 16.5 2.59999 16.8C2.59999 16.9 2.59999 17 2.69999 17.1C2.99999 18.5 3.59999 19.8 4.39999 20.9L59.8 117C60.6 118.8 61.9 120.3 63.4 121.5L69.4 110.3ZM135.5 3.8L80.5 99.2L73 112.2L66.6 123.3C72.5 125.6 79.2 123.2 82.4 117.7L138.6 20.4C141.8 14.9 140.5 7.8 135.5 3.8Z" fill="white"/>
<path d="M255.9 58.3C255.9 65.8 253.7 71.8 249.3 76.3C244.3 81.6 237.7 84.3 229.6 84.3C222.2 84.4 215 81.5 209.8 76.2C199 65 199 47.3 209.8 36.2C215 30.9 222.2 28 229.6 28.1C233.4 28.1 237.3 28.8 240.8 30.2C244.1 31.5 247 33.5 249.4 36.2L244.4 41.2C242.7 39.1 240.5 37.5 238 36.5C235.3 35.4 232.4 34.8 229.5 34.8C223.9 34.7 218.6 36.9 214.7 40.9C206.6 49.6 206.6 63 214.7 71.7C218.6 75.7 224 77.9 229.5 77.8C234.9 77.8 239.3 76.3 242.9 73.3C246.4 70.3 248.5 66.2 249 60.9H229.5V54.5H255.6C255.8 55.7 255.9 57 255.9 58.3ZM266.8 83V62.7C266.8 60 267.8 57.4 269.7 55.4C271.4 53.4 273.9 52.3 276.5 52.3C277.9 52.2 279.3 52.4 280.6 52.8L282.7 46.2C281.1 45.6 279.4 45.3 277.6 45.3C275.3 45.3 273.1 46.1 271.2 47.3C269.2 48.4 267.7 50.2 266.9 52.3H266.6V46.2H260V83H266.8ZM286.4 52.3L292.5 56.1C294.5 53 298 51.2 301.7 51.2C304.2 51.2 306.5 52.1 308.3 53.7C310.1 55.2 311.1 57.5 311.1 59.8V61.4C308 59.8 304.5 59 300.9 59.2C296.1 59.2 292.2 60.4 289.4 62.6C286.6 64.8 285 68.1 285.1 71.7C285 75.2 286.6 78.5 289.2 80.7C292 83.2 295.6 84.5 299.4 84.3C304.2 84.3 308 82.2 310.8 78H311.1V83H317.7V60.4C317.7 55.6 316.2 51.9 313.3 49.2C310.4 46.5 306.3 45.1 301.2 45.1C294.7 45.1 289.8 47.4 286.4 52.3ZM295.2 66.7C297.3 65.3 299.7 64.6 302.2 64.7C306 64.7 309 65.6 311.2 67.2C311.2 70.1 310 72.9 307.8 74.8C305.7 76.9 302.9 78 300 78C298.1 78 296.2 77.4 294.6 76.2C293.2 75.1 292.4 73.5 292.4 71.7C292.4 69.7 293.5 67.8 295.2 66.7ZM348.2 82.5C350.3 81.5 352.1 79.9 353.4 77.9H353.7V83H360.3V29.2H353.4V46.4L353.7 51.5H353.4C352.1 49.5 350.3 48 348.2 46.9C345.9 45.7 343.4 45.1 340.8 45.1C336 45.1 331.5 47.1 328.4 50.8C321.6 58.8 321.6 70.5 328.4 78.5C331.5 82.1 336 84.2 340.8 84.2C343.4 84.2 345.9 83.7 348.2 82.5ZM333.6 74.2C331.3 71.6 330 68.1 330.2 64.6C330.1 61.1 331.3 57.7 333.6 55C335.7 52.6 338.7 51.3 341.9 51.3C345.1 51.2 348.1 52.6 350.2 55C352.5 57.6 353.7 61.1 353.6 64.6C353.7 68.1 352.5 71.5 350.2 74.2C348.1 76.6 345.1 78 341.9 77.9C338.7 78 335.7 76.6 333.6 74.2ZM376.1 30.1C375.2 29.2 374 28.6 372.7 28.6C371.4 28.6 370.2 29.1 369.3 30.1C368.4 31 367.8 32.2 367.8 33.5C367.8 34.8 368.3 36 369.3 36.9C370.2 37.8 371.4 38.4 372.7 38.4C374 38.4 375.2 37.9 376.1 36.9C378 35.1 378.1 32.1 376.3 30.2C376.3 30.2 376.2 30.2 376.1 30.1ZM369.2 46.2V83H376.1V46.2H369.2ZM411.3 81.7C414.2 79.9 416.6 77.4 418.1 74.4L412 71.4C409.5 75.8 406 78 401.7 78C398.6 78.1 395.6 76.9 393.4 74.7C391 72.4 389.7 69.3 389.8 66H418.7L418.8 65.2C418.8 58.9 417.1 53.9 413.9 50.4C410.7 46.9 406.4 45.1 400.9 45.1C395.9 44.9 391.1 47 387.8 50.7C384.4 54.5 382.5 59.5 382.7 64.7C382.5 69.9 384.4 75 388 78.8C391.5 82.5 396.3 84.5 401.4 84.4C404.8 84.2 408.2 83.4 411.3 81.7ZM394 53.7C395.9 52.1 398.3 51.2 400.7 51.3C403.4 51.2 406.1 52.1 408.2 53.8C410 55.4 411.2 57.7 411.3 60.1H390.2C390.8 57.7 392.1 55.4 394 53.7ZM425.1 46.2V83H432V62.7C431.9 59.8 432.9 56.9 434.7 54.7C436.4 52.6 438.9 51.3 441.6 51.4C447.5 51.4 450.5 54.3 450.7 60.4V83.1H457.6V60C457.6 55.2 456.4 51.5 454 49C451.6 46.4 448 45.1 443.6 45.1C441.2 45.1 438.9 45.7 436.8 46.9C434.8 47.9 433.1 49.5 431.9 51.4H431.6V46.3L425.1 46.2ZM484.8 82.6L482.7 76.5C482.2 76.7 481.7 76.9 481.2 77C480.7 77.1 480.1 77.2 479.5 77.2C478.3 77.2 477.1 76.8 476.3 75.9C475.3 75 474.8 73.4 474.8 70.9V52.6H483.8V46.3H474.8V35H467.9V46.2H461.5V52.5H467.9V73.1C467.8 76 468.9 78.8 470.9 80.8C473 82.7 475.7 83.6 478.4 83.5C480.6 83.7 482.7 83.3 484.8 82.6ZM542.5 29.2H534.9L519.6 72.8H519.3L504.6 29.2H497L515.7 83H522.9L542.5 29.2ZM573.3 81.7C576.2 79.9 578.6 77.4 580.1 74.4L574 71.4C571.5 75.8 568 78 563.7 78C560.6 78.1 557.6 76.9 555.4 74.7C553 72.4 551.7 69.3 551.8 66H580.7L580.8 65.2C580.8 58.9 579.1 53.9 575.9 50.4C572.7 46.9 568.4 45.1 562.9 45.1C557.9 44.9 553.1 47 549.8 50.7C546.4 54.5 544.5 59.5 544.7 64.7C544.5 69.9 546.4 75 550 78.8C553.5 82.5 558.3 84.5 563.4 84.4C566.9 84.2 570.3 83.4 573.3 81.7ZM556 53.7C557.9 52.1 560.3 51.2 562.7 51.3C565.4 51.2 568.1 52.1 570.2 53.8C572 55.4 573.2 57.7 573.3 60.1H552.2C552.8 57.7 554.1 55.4 556 53.7ZM587.2 46.2V83H594.1V62.7C594 59.8 595 56.9 596.8 54.7C598.5 52.6 601 51.3 603.7 51.4C609.6 51.4 612.6 54.3 612.8 60.4V83.1H619.7V60C619.7 55.2 618.5 51.5 616.1 49C613.7 46.4 610.1 45.1 605.7 45.1C603.3 45.1 601 45.7 598.9 46.9C596.9 47.9 595.2 49.5 594 51.4H593.7V46.3L587.2 46.2ZM646.8 82.6L644.7 76.5C644.2 76.7 643.7 76.9 643.2 77C642.7 77.1 642.1 77.2 641.5 77.2C640.3 77.2 639.1 76.8 638.3 75.9C637.3 75 636.8 73.4 636.8 70.9V52.6H645.8V46.3H636.8V35H629.9V46.2H623.5V52.5H629.9V73.1C629.8 76 630.9 78.8 632.9 80.8C635 82.7 637.7 83.6 640.4 83.5C642.6 83.7 644.8 83.3 646.8 82.6ZM684.7 83V46.2H677.8V66.5C677.9 69.4 676.9 72.3 675.1 74.5C673.4 76.6 670.9 77.9 668.2 77.8C662.3 77.8 659.3 74.9 659.1 68.8V46.2H652.2V69.2C652.2 74 653.4 77.7 655.8 80.2C658.2 82.8 661.8 84.1 666.2 84.1C668.6 84.1 670.9 83.5 673 82.3C675 81.3 676.7 79.7 677.9 77.8H678.2V83H684.7ZM699.9 83V62.7C699.9 60 700.9 57.4 702.8 55.4C704.5 53.4 707 52.3 709.6 52.3C711 52.2 712.4 52.4 713.7 52.8L715.8 46.2C714.2 45.6 712.5 45.3 710.7 45.3C708.4 45.3 706.2 46.1 704.3 47.3C702.3 48.4 700.8 50.2 700 52.3H699.7V46.2H693.1V83H699.9ZM744.6 81.7C747.5 79.9 749.9 77.4 751.4 74.4L745.3 71.4C742.8 75.8 739.3 78 735 78C731.9 78.1 728.9 76.9 726.7 74.7C724.3 72.4 723 69.3 723.1 66H752L752.1 65.2C752.1 58.9 750.4 53.9 747.2 50.4C744 46.9 739.7 45.1 734.2 45.1C729.2 44.9 724.4 47 721.1 50.7C717.7 54.5 715.8 59.5 716 64.7C715.8 69.9 717.7 75 721.3 78.8C724.8 82.5 729.6 84.5 734.7 84.4C738.2 84.2 741.6 83.4 744.6 81.7ZM727.4 53.7C729.3 52.1 731.7 51.2 734.1 51.3C736.8 51.2 739.5 52.1 741.6 53.8C743.4 55.4 744.6 57.7 744.7 60.1H723.6C724.1 57.7 725.4 55.4 727.4 53.7ZM776 61.8L770.4 60.3C766.4 59.4 764.4 58 764.4 55.8C764.5 54.4 765.3 53.1 766.5 52.5C768 51.6 769.7 51.1 771.4 51.1C773.2 51.1 775.1 51.5 776.7 52.4C778.2 53.2 779.4 54.5 780.1 56L786.2 53.5C785.1 50.9 783.1 48.7 780.6 47.3C777.9 45.7 774.9 44.9 771.8 45C767.6 45 764.1 46 761.4 48C758.8 49.9 757.2 52.9 757.3 56.1C757.3 61.2 760.9 64.7 768 66.4L774.3 68C777.9 69.1 779.7 70.8 779.7 73.2C779.7 74.6 778.9 75.6 777.5 76.6C775.8 77.6 773.9 78.1 771.9 78.1C769.9 78.1 767.9 77.5 766.2 76.2C764.4 74.9 763.1 73.1 762.3 71L756.2 73.6C757.4 76.7 759.5 79.3 762.3 81.2C765.2 83.2 768.6 84.2 772.1 84.1C775.9 84.2 779.6 83.1 782.6 80.8C785.2 79 786.8 75.9 786.8 72.7C786.9 67.2 783.3 63.6 776 61.8Z" fill="white"/>
</svg>
