<svg width="132" height="35" viewBox="0 0 132 35" fill="none" xmlns="http://www.w3.org/2000/svg">
<g filter="url(#filter0_d_541_56080)">
<path d="M5 3.64917C5 2.5446 5.89543 1.64917 7 1.64917H125C126.105 1.64917 127 2.5446 127 3.64917V23.6492C127 24.7537 126.105 25.6492 125 25.6492H7C5.89543 25.6492 5 24.7537 5 23.6492V3.64917Z" fill="#EBE8E5"/>
<path d="M5.31277 3.64917C5.31277 2.71734 6.06817 1.96194 7 1.96194H125C125.932 1.96194 126.687 2.71734 126.687 3.64917V23.6492C126.687 24.581 125.932 25.3364 125 25.3364H7C6.06817 25.3364 5.31277 24.581 5.31277 23.6492V3.64917Z" stroke="#C5CBD7" stroke-width="0.62555"/>
<path d="M11.8435 18.1492V9.47317H15.3501C15.4344 9.47317 15.5388 9.47719 15.6633 9.48522C15.7879 9.48924 15.9064 9.50129 16.0188 9.52137C16.5008 9.59769 16.9025 9.76237 17.2238 10.0154C17.5492 10.2685 17.7922 10.5878 17.9528 10.9734C18.1135 11.359 18.1938 11.7848 18.1938 12.2507C18.1938 12.7206 18.1135 13.1484 17.9528 13.534C17.7922 13.9196 17.5492 14.2389 17.2238 14.492C16.9025 14.745 16.5008 14.9097 16.0188 14.986C15.9064 15.0021 15.7859 15.0142 15.6573 15.0222C15.5328 15.0302 15.4304 15.0342 15.3501 15.0342H13.1027V18.1492H11.8435ZM13.1027 13.8413H15.3019C15.3822 13.8413 15.4705 13.8373 15.5669 13.8292C15.6674 13.8212 15.7618 13.8072 15.8501 13.7871C16.1072 13.7268 16.314 13.6164 16.4707 13.4557C16.6273 13.291 16.7398 13.1022 16.8081 12.8893C16.8764 12.6765 16.9105 12.4636 16.9105 12.2507C16.9105 12.0378 16.8764 11.8269 16.8081 11.6181C16.7398 11.4052 16.6273 11.2184 16.4707 11.0577C16.314 10.8931 16.1072 10.7806 15.8501 10.7203C15.7618 10.6962 15.6674 10.6802 15.5669 10.6721C15.4705 10.6641 15.3822 10.6601 15.3019 10.6601H13.1027V13.8413ZM22.1416 18.3299C21.4909 18.3299 20.9266 18.1833 20.4486 17.8901C19.9706 17.5969 19.6011 17.1932 19.34 16.6791C19.0829 16.1609 18.9544 15.5644 18.9544 14.8896C18.9544 14.2108 19.087 13.6144 19.3521 13.1002C19.6172 12.5821 19.9887 12.1804 20.4667 11.8952C20.9447 11.606 21.503 11.4614 22.1416 11.4614C22.7923 11.4614 23.3567 11.608 23.8347 11.9012C24.3126 12.1945 24.6822 12.5981 24.9433 13.1123C25.2043 13.6264 25.3349 14.2189 25.3349 14.8896C25.3349 15.5685 25.2023 16.1669 24.9372 16.6851C24.6762 17.1992 24.3066 17.6029 23.8286 17.8961C23.3507 18.1853 22.7883 18.3299 22.1416 18.3299ZM22.1416 17.143C22.7642 17.143 23.2281 16.9341 23.5334 16.5164C23.8427 16.0946 23.9973 15.5524 23.9973 14.8896C23.9973 14.2108 23.8407 13.6686 23.5274 13.2629C23.2181 12.8532 22.7562 12.6483 22.1416 12.6483C21.7199 12.6483 21.3724 12.7447 21.0993 12.9375C20.8262 13.1263 20.6233 13.3894 20.4908 13.7268C20.3582 14.0602 20.292 14.4478 20.292 14.8896C20.292 15.5725 20.4486 16.1187 20.7619 16.5284C21.0752 16.9381 21.5351 17.143 22.1416 17.143ZM27.8093 18.1492L25.821 11.6361L27.0682 11.6422L28.4299 16.1067L29.8036 11.6422H30.8881L32.2618 16.1067L33.6234 11.6422H34.8646L32.8763 18.1492H31.8641L30.3458 13.4376L28.8215 18.1492H27.8093ZM38.5941 18.3299C37.9474 18.3299 37.3791 18.1893 36.889 17.9082C36.403 17.623 36.0235 17.2273 35.7503 16.7212C35.4812 16.2111 35.3466 15.6207 35.3466 14.9499C35.3466 14.2389 35.4792 13.6224 35.7443 13.1002C36.0134 12.5781 36.387 12.1744 36.8649 11.8892C37.3429 11.604 37.8992 11.4614 38.5339 11.4614C39.1966 11.4614 39.761 11.6161 40.2269 11.9253C40.6928 12.2306 41.0403 12.6664 41.2692 13.2328C41.5022 13.7991 41.5946 14.4719 41.5464 15.2511H40.2871V14.7932C40.2791 14.0381 40.1345 13.4798 39.8533 13.1183C39.5762 12.7568 39.1524 12.576 38.5821 12.576C37.9515 12.576 37.4775 12.7749 37.1602 13.1725C36.8429 13.5702 36.6842 14.1446 36.6842 14.8957C36.6842 15.6106 36.8429 16.1649 37.1602 16.5586C37.4775 16.9482 37.9354 17.143 38.5339 17.143C38.9275 17.143 39.2669 17.0546 39.5521 16.8779C39.8413 16.6971 40.0662 16.4401 40.2269 16.1067L41.462 16.4983C41.209 17.0807 40.8254 17.5326 40.3112 17.8539C39.7971 18.1713 39.2247 18.3299 38.5941 18.3299ZM36.2745 15.2511V14.2691H40.9198V15.2511H36.2745ZM42.8981 18.1492V11.6422H44.0188V13.2207L43.8621 13.0159C43.9425 12.807 44.0469 12.6162 44.1754 12.4435C44.304 12.2668 44.4526 12.1222 44.6213 12.0097C44.786 11.8892 44.9687 11.7968 45.1696 11.7325C45.3744 11.6643 45.5833 11.6241 45.7962 11.612C46.009 11.596 46.2139 11.606 46.4107 11.6422V12.8231C46.1978 12.7668 45.9608 12.7508 45.6998 12.7749C45.4427 12.799 45.2057 12.8813 44.9888 13.0219C44.784 13.1544 44.6213 13.3151 44.5008 13.5039C44.3843 13.6927 44.3 13.9036 44.2477 14.1365C44.1955 14.3655 44.1694 14.6085 44.1694 14.8655V18.1492H42.8981ZM50.3264 18.3299C49.6797 18.3299 49.1114 18.1893 48.6213 17.9082C48.1353 17.623 47.7557 17.2273 47.4826 16.7212C47.2135 16.2111 47.0789 15.6207 47.0789 14.9499C47.0789 14.2389 47.2115 13.6224 47.4766 13.1002C47.7457 12.5781 48.1192 12.1744 48.5972 11.8892C49.0752 11.604 49.6315 11.4614 50.2661 11.4614C50.9289 11.4614 51.4932 11.6161 51.9592 11.9253C52.4251 12.2306 52.7725 12.6664 53.0015 13.2328C53.2345 13.7991 53.3268 14.4719 53.2786 15.2511H52.0194V14.7932C52.0114 14.0381 51.8668 13.4798 51.5856 13.1183C51.3085 12.7568 50.8847 12.576 50.3143 12.576C49.6837 12.576 49.2098 12.7749 48.8924 13.1725C48.5751 13.5702 48.4165 14.1446 48.4165 14.8957C48.4165 15.6106 48.5751 16.1649 48.8924 16.5586C49.2098 16.9482 49.6677 17.143 50.2661 17.143C50.6598 17.143 50.9992 17.0546 51.2844 16.8779C51.5736 16.6971 51.7985 16.4401 51.9592 16.1067L53.1943 16.4983C52.9412 17.0807 52.5577 17.5326 52.0435 17.8539C51.5294 18.1713 50.957 18.3299 50.3264 18.3299ZM48.0068 15.2511V14.2691H52.652V15.2511H48.0068ZM57.2151 18.3299C56.6086 18.3299 56.0844 18.1793 55.6426 17.878C55.2048 17.5768 54.8654 17.1671 54.6244 16.6489C54.3874 16.1268 54.2689 15.5403 54.2689 14.8896C54.2689 14.2349 54.3894 13.6505 54.6304 13.1364C54.8714 12.6182 55.2128 12.2105 55.6547 11.9133C56.1005 11.612 56.6287 11.4614 57.2392 11.4614C57.8538 11.4614 58.3699 11.612 58.7877 11.9133C59.2094 12.2105 59.5267 12.6182 59.7396 13.1364C59.9565 13.6545 60.065 14.2389 60.065 14.8896C60.065 15.5403 59.9565 16.1248 59.7396 16.6429C59.5227 17.1611 59.2034 17.5728 58.7816 17.878C58.3599 18.1793 57.8377 18.3299 57.2151 18.3299ZM57.3899 17.1912C57.8036 17.1912 58.141 17.0928 58.4021 16.896C58.6631 16.6992 58.8539 16.428 58.9744 16.0826C59.0949 15.7372 59.1552 15.3395 59.1552 14.8896C59.1552 14.4398 59.0929 14.0421 58.9684 13.6967C58.8479 13.3513 58.6591 13.0821 58.4021 12.8893C58.149 12.6965 57.8257 12.6001 57.432 12.6001C57.0143 12.6001 56.6709 12.7026 56.4018 12.9074C56.1326 13.1123 55.9318 13.3874 55.7993 13.7328C55.6707 14.0783 55.6065 14.4639 55.6065 14.8896C55.6065 15.3194 55.6707 15.709 55.7993 16.0585C55.9318 16.4039 56.1286 16.6791 56.3897 16.8839C56.6548 17.0888 56.9882 17.1912 57.3899 17.1912ZM59.1552 18.1492V13.4677H59.0106V9.47317H60.2758V18.1492H59.1552ZM67.4286 18.3299C66.8061 18.3299 66.2839 18.1793 65.8621 17.878C65.4404 17.5728 65.1211 17.1611 64.9042 16.6429C64.6873 16.1248 64.5788 15.5403 64.5788 14.8896C64.5788 14.2389 64.6853 13.6545 64.8981 13.1364C65.115 12.6182 65.4324 12.2105 65.8501 11.9133C66.2718 11.612 66.79 11.4614 67.4045 11.4614C68.0151 11.4614 68.5413 11.612 68.9831 11.9133C69.4289 12.2105 69.7724 12.6182 70.0134 13.1364C70.2544 13.6505 70.3749 14.2349 70.3749 14.8896C70.3749 15.5403 70.2544 16.1268 70.0134 16.6489C69.7764 17.1671 69.437 17.5768 68.9951 17.878C68.5573 18.1793 68.0352 18.3299 67.4286 18.3299ZM64.3679 18.1492V9.47317H65.6332V13.4677H65.4886V18.1492H64.3679ZM67.2539 17.1912C67.6556 17.1912 67.987 17.0888 68.248 16.8839C68.5131 16.6791 68.71 16.4039 68.8385 16.0585C68.971 15.709 69.0373 15.3194 69.0373 14.8896C69.0373 14.4639 68.971 14.0783 68.8385 13.7328C68.71 13.3874 68.5111 13.1123 68.242 12.9074C67.9729 12.7026 67.6295 12.6001 67.2117 12.6001C66.8181 12.6001 66.4928 12.6965 66.2357 12.8893C65.9826 13.0821 65.7939 13.3513 65.6693 13.6967C65.5488 14.0421 65.4886 14.4398 65.4886 14.8896C65.4886 15.3395 65.5488 15.7372 65.6693 16.0826C65.7898 16.428 65.9806 16.6992 66.2417 16.896C66.5028 17.0928 66.8402 17.1912 67.2539 17.1912ZM72.1847 21.0412L73.4439 17.6129L73.462 18.6251L70.6242 11.6422H71.9377L74.0585 17.0345H73.6729L75.6973 11.6422H76.9746L73.3837 21.0412H72.1847Z" fill="black"/>
<path d="M81.872 19.6492V10.8732C81.872 10.6545 81.88 10.4145 81.896 10.1532C81.912 9.8865 81.9573 9.6225 82.032 9.36117C82.1067 9.09984 82.2427 8.8625 82.44 8.64917C82.6853 8.37717 82.9493 8.1905 83.232 8.08917C83.52 7.9825 83.8027 7.92384 84.08 7.91317C84.3573 7.89717 84.6 7.88917 84.808 7.88917H85.888V9.45717H84.888C84.52 9.45717 84.2453 9.5505 84.064 9.73717C83.888 9.9185 83.8 10.1585 83.8 10.4572V19.6492H81.872ZM80.48 12.5212V11.0092H85.888V12.5212H80.48ZM89.3485 19.8892C88.7245 19.8892 88.1965 19.7718 87.7645 19.5372C87.3325 19.2972 87.0045 18.9798 86.7805 18.5852C86.5618 18.1905 86.4525 17.7558 86.4525 17.2812C86.4525 16.8652 86.5218 16.4918 86.6605 16.1612C86.7992 15.8252 87.0125 15.5372 87.3005 15.2972C87.5885 15.0518 87.9618 14.8518 88.4205 14.6972C88.7672 14.5852 89.1725 14.4838 89.6365 14.3932C90.1058 14.3025 90.6125 14.2198 91.1565 14.1452C91.7058 14.0652 92.2792 13.9798 92.8765 13.8892L92.1885 14.2812C92.1938 13.6838 92.0605 13.2438 91.7885 12.9612C91.5165 12.6785 91.0578 12.5372 90.4125 12.5372C90.0232 12.5372 89.6472 12.6278 89.2845 12.8092C88.9218 12.9905 88.6685 13.3025 88.5245 13.7452L86.7645 13.1932C86.9778 12.4625 87.3832 11.8758 87.9805 11.4332C88.5832 10.9905 89.3938 10.7692 90.4125 10.7692C91.1805 10.7692 91.8552 10.8945 92.4365 11.1452C93.0232 11.3958 93.4578 11.8065 93.7405 12.3772C93.8952 12.6812 93.9885 12.9932 94.0205 13.3132C94.0525 13.6278 94.0685 13.9718 94.0685 14.3452V19.6492H92.3805V17.7772L92.6605 18.0812C92.2712 18.7052 91.8152 19.1638 91.2925 19.4572C90.7752 19.7452 90.1272 19.8892 89.3485 19.8892ZM89.7325 18.3532C90.1698 18.3532 90.5432 18.2758 90.8525 18.1212C91.1618 17.9665 91.4072 17.7772 91.5885 17.5532C91.7752 17.3292 91.9005 17.1185 91.9645 16.9212C92.0658 16.6758 92.1218 16.3958 92.1325 16.0812C92.1485 15.7612 92.1565 15.5025 92.1565 15.3052L92.7485 15.4812C92.1672 15.5718 91.6685 15.6518 91.2525 15.7212C90.8365 15.7905 90.4792 15.8572 90.1805 15.9212C89.8818 15.9798 89.6178 16.0465 89.3885 16.1212C89.1645 16.2012 88.9752 16.2945 88.8205 16.4012C88.6658 16.5078 88.5458 16.6305 88.4605 16.7692C88.3805 16.9078 88.3405 17.0705 88.3405 17.2572C88.3405 17.4705 88.3938 17.6598 88.5005 17.8252C88.6072 17.9852 88.7618 18.1132 88.9645 18.2092C89.1725 18.3052 89.4285 18.3532 89.7325 18.3532ZM99.4873 19.8892C98.4206 19.8892 97.5539 19.6492 96.8873 19.1692C96.2206 18.6892 95.8153 18.0145 95.6713 17.1452L97.6393 16.8412C97.7406 17.2678 97.9646 17.6038 98.3113 17.8492C98.6579 18.0945 99.0953 18.2172 99.6233 18.2172C100.087 18.2172 100.445 18.1265 100.695 17.9452C100.951 17.7585 101.079 17.5052 101.079 17.1852C101.079 16.9878 101.031 16.8305 100.935 16.7132C100.845 16.5905 100.642 16.4732 100.327 16.3612C100.013 16.2492 99.5299 16.1078 98.8793 15.9372C98.1539 15.7452 97.5779 15.5398 97.1513 15.3212C96.7246 15.0972 96.4179 14.8332 96.2313 14.5292C96.0446 14.2252 95.9513 13.8572 95.9513 13.4252C95.9513 12.8865 96.0926 12.4172 96.3753 12.0172C96.6579 11.6172 97.0526 11.3105 97.5593 11.0972C98.0659 10.8785 98.6633 10.7692 99.3513 10.7692C100.023 10.7692 100.618 10.8732 101.135 11.0812C101.658 11.2892 102.079 11.5852 102.399 11.9692C102.719 12.3532 102.917 12.8038 102.991 13.3212L101.023 13.6732C100.975 13.3052 100.807 13.0145 100.519 12.8012C100.237 12.5878 99.8579 12.4678 99.3833 12.4412C98.9299 12.4145 98.5646 12.4838 98.2873 12.6492C98.0099 12.8092 97.8713 13.0358 97.8713 13.3292C97.8713 13.4945 97.9273 13.6358 98.0393 13.7532C98.1513 13.8705 98.3753 13.9878 98.7113 14.1052C99.0526 14.2225 99.5593 14.3665 100.231 14.5372C100.919 14.7132 101.469 14.9158 101.879 15.1452C102.295 15.3692 102.594 15.6385 102.775 15.9532C102.962 16.2678 103.055 16.6492 103.055 17.0972C103.055 17.9665 102.738 18.6492 102.103 19.1452C101.474 19.6412 100.602 19.8892 99.4873 19.8892ZM109.872 19.6492C109.301 19.7558 108.741 19.8012 108.192 19.7852C107.648 19.7745 107.16 19.6758 106.728 19.4892C106.296 19.2972 105.968 18.9958 105.743 18.5852C105.546 18.2118 105.442 17.8305 105.432 17.4412C105.421 17.0518 105.416 16.6118 105.416 16.1212V8.60917H107.336V16.0092C107.336 16.3558 107.338 16.6598 107.344 16.9212C107.354 17.1825 107.41 17.3958 107.512 17.5612C107.704 17.8812 108.01 18.0598 108.432 18.0972C108.853 18.1345 109.333 18.1132 109.872 18.0332V19.6492ZM103.848 12.5212V11.0092H109.872V12.5212H103.848ZM117.705 19.6492V15.4892C117.705 15.2172 117.687 14.9158 117.649 14.5852C117.612 14.2545 117.524 13.9372 117.385 13.6332C117.252 13.3238 117.049 13.0705 116.777 12.8732C116.511 12.6758 116.148 12.5772 115.689 12.5772C115.444 12.5772 115.201 12.6172 114.961 12.6972C114.721 12.7772 114.503 12.9158 114.305 13.1132C114.113 13.3052 113.959 13.5718 113.841 13.9132C113.724 14.2492 113.665 14.6812 113.665 15.2092L112.521 14.7212C112.521 13.9852 112.663 13.3185 112.945 12.7212C113.233 12.1238 113.655 11.6492 114.209 11.2972C114.764 10.9398 115.447 10.7612 116.257 10.7612C116.897 10.7612 117.425 10.8678 117.841 11.0812C118.257 11.2945 118.588 11.5665 118.833 11.8972C119.079 12.2278 119.26 12.5798 119.377 12.9532C119.495 13.3265 119.569 13.6812 119.601 14.0172C119.639 14.3478 119.657 14.6172 119.657 14.8252V19.6492H117.705ZM111.713 19.6492V11.0092H113.433V13.6892H113.665V19.6492H111.713Z" fill="#EF8435"/>
</g>
<defs>
<filter id="filter0_d_541_56080" x="0" y="0.64917" width="132" height="34" filterUnits="userSpaceOnUse" color-interpolation-filters="sRGB">
<feFlood flood-opacity="0" result="BackgroundImageFix"/>
<feColorMatrix in="SourceAlpha" type="matrix" values="0 0 0 0 0 0 0 0 0 0 0 0 0 0 0 0 0 0 127 0" result="hardAlpha"/>
<feMorphology radius="1" operator="erode" in="SourceAlpha" result="effect1_dropShadow_541_56080"/>
<feOffset dy="4"/>
<feGaussianBlur stdDeviation="3"/>
<feColorMatrix type="matrix" values="0 0 0 0 0 0 0 0 0 0 0 0 0 0 0 0 0 0 0.1 0"/>
<feBlend mode="normal" in2="BackgroundImageFix" result="effect1_dropShadow_541_56080"/>
<feBlend mode="normal" in="SourceGraphic" in2="effect1_dropShadow_541_56080" result="shape"/>
</filter>
</defs>
</svg>
