<svg width="6500" height="2300" viewBox="0 0 6500 2300" fill="none" xmlns="http://www.w3.org/2000/svg">
<path d="M2196.08 1485C2380.7 1485 2490.16 1370.8 2490.16 1181.45C2490.16 992.699 2380.7 879.091 2200.22 879.091H1990.76V1485H2196.08ZM2100.52 1390.03V974.06H2194.01C2317.09 974.06 2381.29 1042.7 2381.29 1181.45C2381.29 1320.8 2317.09 1390.03 2190.76 1390.03H2100.52ZM2589.72 1485H2696.82V1217.84C2696.82 1160.15 2740.31 1119.32 2799.18 1119.32C2817.23 1119.32 2839.71 1122.58 2848.88 1125.54V1027.02C2839.12 1025.24 2822.26 1024.06 2810.42 1024.06C2758.35 1024.06 2714.86 1053.64 2698.29 1106.31H2693.56V1030.57H2589.72V1485ZM3099.55 1493.88C3232.68 1493.88 3317.3 1400.09 3317.3 1259.56C3317.3 1118.73 3232.68 1024.65 3099.55 1024.65C2966.41 1024.65 2881.8 1118.73 2881.8 1259.56C2881.8 1400.09 2966.41 1493.88 3099.55 1493.88ZM3100.14 1408.08C3026.47 1408.08 2990.38 1342.4 2990.38 1259.26C2990.38 1176.13 3026.47 1109.56 3100.14 1109.56C3172.62 1109.56 3208.72 1176.13 3208.72 1259.26C3208.72 1342.4 3172.62 1408.08 3100.14 1408.08ZM3408.2 1655.41H3515.3V1413.4H3519.73C3536.6 1446.54 3571.8 1492.99 3649.91 1492.99C3757.01 1492.99 3837.18 1408.08 3837.18 1258.38C3837.18 1106.9 3754.64 1024.65 3649.61 1024.65C3569.44 1024.65 3536.01 1072.88 3519.73 1105.72H3513.52V1030.57H3408.2V1655.41ZM3513.22 1257.78C3513.22 1169.62 3551.09 1112.52 3620.03 1112.52C3691.33 1112.52 3728.01 1173.17 3728.01 1257.78C3728.01 1342.99 3690.74 1405.12 3620.03 1405.12C3551.69 1405.12 3513.22 1345.95 3513.22 1257.78ZM3933.63 1485H4038.96V1413.4H4045.17C4062.03 1446.54 4097.24 1492.99 4175.35 1492.99C4282.45 1492.99 4362.62 1408.08 4362.62 1258.38C4362.62 1106.9 4280.08 1024.65 4175.05 1024.65C4094.87 1024.65 4061.44 1072.88 4045.17 1105.72H4040.73V879.091H3933.63V1485ZM4038.66 1257.78C4038.66 1169.62 4076.53 1112.52 4145.46 1112.52C4216.77 1112.52 4253.45 1173.17 4253.45 1257.78C4253.45 1342.99 4216.17 1405.12 4145.46 1405.12C4077.12 1405.12 4038.66 1345.95 4038.66 1257.78ZM4584.44 1494.17C4655.74 1494.17 4698.34 1460.74 4717.87 1422.57H4721.42V1485H4824.38V1180.86C4824.38 1060.75 4726.45 1024.65 4639.76 1024.65C4544.2 1024.65 4470.83 1067.25 4447.16 1150.09L4547.16 1164.29C4557.81 1133.23 4587.99 1106.6 4640.35 1106.6C4690.06 1106.6 4717.28 1132.05 4717.28 1176.72V1178.5C4717.28 1209.26 4685.03 1210.74 4604.85 1219.32C4516.69 1228.79 4432.37 1255.12 4432.37 1357.49C4432.37 1446.83 4497.75 1494.17 4584.44 1494.17ZM4612.25 1415.47C4567.57 1415.47 4535.62 1395.06 4535.62 1355.71C4535.62 1314.59 4571.42 1297.43 4619.35 1290.62C4647.45 1286.78 4703.67 1279.68 4717.57 1268.43V1321.98C4717.57 1372.58 4676.74 1415.47 4612.25 1415.47ZM5291.23 1150.68C5276.44 1073.76 5214.9 1024.65 5108.4 1024.65C4998.93 1024.65 4924.37 1078.5 4924.67 1162.52C4924.37 1228.79 4965.2 1272.58 5052.48 1290.62L5129.99 1306.9C5171.71 1316.07 5191.23 1332.93 5191.23 1358.67C5191.23 1389.73 5157.51 1413.11 5106.62 1413.11C5057.51 1413.11 5025.56 1391.81 5016.38 1350.98L4911.95 1361.04C4925.26 1444.47 4995.38 1493.88 5106.92 1493.88C5220.52 1493.88 5300.7 1435 5301 1348.91C5300.7 1284.12 5258.99 1244.47 5173.19 1225.83L5095.67 1209.26C5049.52 1198.91 5031.18 1182.93 5031.47 1156.6C5031.18 1125.83 5065.2 1104.53 5109.87 1104.53C5159.28 1104.53 5185.32 1131.45 5193.6 1161.34L5291.23 1150.68ZM5590.49 1493.88C5696.41 1493.88 5769.19 1442.1 5788.12 1363.11L5688.12 1351.87C5673.62 1390.33 5638.12 1410.44 5591.97 1410.44C5522.74 1410.44 5476.88 1364.88 5475.99 1287.07H5792.56V1254.23C5792.56 1094.77 5696.7 1024.65 5584.87 1024.65C5454.69 1024.65 5369.78 1120.21 5369.78 1260.45C5369.78 1403.05 5453.51 1493.88 5590.49 1493.88ZM5476.29 1214.89C5479.54 1156.9 5522.44 1108.08 5586.35 1108.08C5647.89 1108.08 5689.31 1153.05 5689.9 1214.89H5476.29Z" fill="white"/>
<rect x="276" y="495" width="1310" height="1310" rx="83" stroke="white" stroke-width="120"/>
<path d="M873.801 1511.79L683.611 1511.79C620.429 1511.79 569.211 1460.57 569.211 1397.39L569.211 894.029C569.211 830.848 620.429 779.629 683.611 779.629L873.801 779.629L873.801 1511.79Z" fill="white"/>
<path d="M988 816.6C988 800.805 1000.8 788 1016.6 788L1206.79 788C1254.18 788 1292.59 826.414 1292.59 873.8L1292.59 1088.3C1292.59 1104.1 1279.79 1116.9 1263.99 1116.9L1073.8 1116.9C1026.41 1116.9 988 1078.49 988 1031.1L988 816.6Z" fill="white"/>
<path d="M988 1211.28C988 1195.48 1000.8 1182.68 1016.6 1182.68L1206.79 1182.68C1254.18 1182.68 1292.59 1221.09 1292.59 1268.48L1292.59 1482.98C1292.59 1498.78 1279.79 1511.58 1263.99 1511.58L1073.8 1511.58C1026.41 1511.58 988 1473.17 988 1425.78L988 1211.28Z" fill="white"/>
</svg>
