<svg width="24" height="25" viewBox="0 0 24 25" fill="none" xmlns="http://www.w3.org/2000/svg">
<g clip-path="url(#clip0_2301_915)">
<path d="M24 12.0625C24 5.43508 18.6274 0.0625 12 0.0625C5.37258 0.0625 0 5.43508 0 12.0625C0 18.052 4.3882 23.0165 10.125 23.9167V15.5312H7.07812V12.0625H10.125V9.41875C10.125 6.41125 11.9166 4.75 14.6576 4.75C15.9701 4.75 17.3438 4.98438 17.3438 4.98438V7.9375H15.8306C14.34 7.9375 13.875 8.86258 13.875 9.8125V12.0625H17.2031L16.6711 15.5312H13.875V23.9167C19.6118 23.0165 24 18.052 24 12.0625Z" fill="#1877F2"/>
<path d="M16.6711 15.5312L17.2031 12.0625H13.875V9.8125C13.875 8.86352 14.34 7.9375 15.8306 7.9375H17.3438V4.98438C17.3438 4.98438 15.9705 4.75 14.6576 4.75C11.9166 4.75 10.125 6.41125 10.125 9.41875V12.0625H7.07812V15.5312H10.125V23.9167C11.3674 24.1111 12.6326 24.1111 13.875 23.9167V15.5312H16.6711Z" fill="white"/>
</g>
<defs>
<clipPath id="clip0_2301_915">
<rect width="24" height="24" fill="white" transform="translate(0 0.0625)"/>
</clipPath>
</defs>
</svg>
