<svg width="43" height="36" viewBox="0 0 43 36" fill="none" xmlns="http://www.w3.org/2000/svg">
<path d="M22.5389 16.2383C22.4655 16.1115 22.1831 15.8608 21.692 15.4865C21.1582 15.0749 20.8333 14.9125 20.7173 14.9992C20.4504 15.2003 20.1642 15.4292 19.8587 15.686C19.5261 15.9676 19.265 16.2028 19.0755 16.3915C18.7235 16.7226 18.4064 17.0227 18.1241 17.2919C17.5942 17.8023 17.1572 18.2402 16.813 18.6053C16.7898 18.5867 16.4862 18.3979 15.9022 18.0391C15.3336 17.6894 15.0455 17.5084 15.0377 17.4961C14.9062 17.5858 14.6316 17.8379 14.2139 18.2525C13.7963 18.6703 13.5874 18.8992 13.5874 18.9394L15.467 20.5545C15.4709 20.5576 15.9911 21.0187 17.0276 21.9376C17.0701 21.9624 17.1069 21.9747 17.1378 21.9747C17.3157 21.7365 17.5884 21.3977 17.9558 20.9583C18.4934 20.3241 19.0504 19.7037 19.6266 19.0972C20.0211 18.6827 20.667 18.0608 21.5643 17.2315C22.2373 16.6065 22.5621 16.2755 22.5389 16.2383Z" fill="#E8C126"/>
<path d="M10.0995 9.84138L8.58039 11.3615L6.80757 9.58752L5.03477 11.3615L3.51562 9.84138L5.28845 8.06737L3.51562 6.29335L5.03477 4.77319L6.80757 6.54721L8.58039 4.77319L10.0995 6.29335L8.3267 8.06737L10.0995 9.84138Z" fill="#CCFBF1" fill-opacity="0.4"/>
<path d="M8.58041 4.77319L6.80759 6.54721L5.03477 4.77319L3.51562 6.29335L5.28845 8.06736L3.51562 9.84138L5.03477 11.3615L6.80759 9.58752L8.58041 11.3615L10.0995 9.84138L8.32671 8.06736L10.0995 6.29335L8.58041 4.77319Z" fill="black"/>
<path d="M10.0995 20.0448L8.58039 21.5649L6.80759 19.7909L5.03477 21.5649L3.51562 20.0448L5.28845 18.2707L3.51562 16.4967L5.03477 14.9766L6.80759 16.7506L8.58039 14.9766L10.0995 16.4967L8.32671 18.2707L10.0995 20.0448Z" fill="#CCFBF1" fill-opacity="0.4"/>
<path d="M8.58039 14.9766L6.80757 16.7506L5.03477 14.9766L3.51562 16.4967L5.28845 18.2707L3.51562 20.0447L5.03477 21.5649L6.80757 19.7909L8.58039 21.5649L10.0995 20.0447L8.32671 18.2707L10.0995 16.4967L8.58039 14.9766Z" fill="black"/>
<path d="M21.2301 9.77914L19.711 11.2993L17.9382 9.52528L16.1654 11.2993L14.6462 9.77914L16.4191 8.00512L14.6462 6.2311L16.1654 4.71094L17.9382 6.48496L19.711 4.71094L21.2301 6.2311L19.4573 8.00512L21.2301 9.77914Z" fill="#CCFBF1" fill-opacity="0.4"/>
<path d="M19.711 4.71094L17.9382 6.48495L16.1654 4.71094L14.6462 6.23109L16.4191 8.00511L14.6462 9.77913L16.1654 11.2993L17.9382 9.52527L19.711 11.2993L21.2301 9.77913L19.4573 8.00511L21.2301 6.23109L19.711 4.71094Z" fill="black"/>
<path d="M32.4211 9.77914L30.9019 11.2993L29.1291 9.52528L27.3563 11.2993L25.8372 9.77914L27.61 8.00512L25.8372 6.2311L27.3563 4.71094L29.1291 6.48496L30.9019 4.71094L32.4211 6.2311L30.6482 8.00512L32.4211 9.77914Z" fill="#CCFBF1" fill-opacity="0.4"/>
<path d="M30.9019 4.71094L29.1291 6.48495L27.3563 4.71094L25.8372 6.23109L27.61 8.00511L25.8372 9.77913L27.3563 11.2993L29.1291 9.52527L30.9019 11.2993L32.421 9.77913L30.6482 8.00511L32.421 6.23109L30.9019 4.71094Z" fill="black"/>
<path d="M4.6321 33V25.7273H6.16974V28.728H9.29119V25.7273H10.8253V33H9.29119V29.9957H6.16974V33H4.6321Z" 
      fill="#E8C126"/>
<path d="M19.3153 29.3636C19.3153 30.1567 19.165 30.8314 18.8643 31.3878C18.5661 31.9441 18.1589 32.3691 17.6428 32.6626C17.129 32.9538 16.5514 33.0994 15.9098 33.0994C15.2635 33.0994 14.6835 32.9527 14.1697 32.6591C13.656 32.3655 13.25 31.9406 12.9517 31.3842C12.6534 30.8279 12.5043 30.1544 12.5043 29.3636C12.5043 28.5705 12.6534 27.8958 12.9517 27.3395C13.25 26.7831 13.656 26.3594 14.1697 26.0682C14.6835 25.7746 15.2635 25.6278 15.9098 25.6278C16.5514 25.6278 17.129 25.7746 17.6428 26.0682C18.1589 26.3594 18.5661 26.7831 18.8643 27.3395C19.165 27.8958 19.3153 28.5705 19.3153 29.3636ZM17.7564 29.3636C17.7564 28.8499 17.6795 28.4167 17.5256 28.0639C17.3741 27.7112 17.1598 27.4437 16.8828 27.2614C16.6058 27.0791 16.2815 26.9879 15.9098 26.9879C15.5381 26.9879 15.2138 27.0791 14.9368 27.2614C14.6598 27.4437 14.4444 27.7112 14.2905 28.0639C14.139 28.4167 14.0632 28.8499 14.0632 29.3636C14.0632 29.8774 14.139 30.3106 14.2905 30.6634C14.4444 31.0161 14.6598 31.2836 14.9368 31.4659C15.2138 31.6482 15.5381 31.7393 15.9098 31.7393C16.2815 31.7393 16.6058 31.6482 16.8828 31.4659C17.1598 31.2836 17.3741 31.0161 17.5256 30.6634C17.6795 30.3106 17.7564 29.8774 17.7564 29.3636Z" fill="#E8C126"/>
<path d="M24.5774 27.8189C24.549 27.5324 24.4271 27.3099 24.2116 27.1513C23.9962 26.9927 23.7038 26.9134 23.3345 26.9134C23.0836 26.9134 22.8717 26.9489 22.6989 27.0199C22.526 27.0885 22.3935 27.1844 22.3011 27.3075C22.2112 27.4306 22.1662 27.5703 22.1662 27.7266C22.1615 27.8568 22.1887 27.9704 22.2479 28.0675C22.3094 28.1645 22.3935 28.2486 22.5 28.3196C22.6065 28.3883 22.7296 28.4486 22.8693 28.5007C23.009 28.5504 23.1581 28.593 23.3168 28.6286L23.9702 28.7848C24.2874 28.8558 24.5786 28.9505 24.8438 29.0689C25.1089 29.1873 25.3385 29.3329 25.5327 29.5057C25.7268 29.6785 25.8771 29.8821 25.9837 30.1165C26.0926 30.3509 26.1482 30.6196 26.1506 30.9226C26.1482 31.3677 26.0346 31.7536 25.8097 32.0803C25.5871 32.4046 25.2652 32.6567 24.8438 32.8366C24.4247 33.0142 23.9193 33.103 23.3274 33.103C22.7403 33.103 22.2289 33.013 21.7933 32.8331C21.3601 32.6532 21.0215 32.3868 20.7777 32.0341C20.5362 31.679 20.4096 31.2398 20.3977 30.7166H21.8857C21.9022 30.9605 21.9721 31.1641 22.0952 31.3274C22.2206 31.4884 22.3875 31.6103 22.5959 31.6932C22.8066 31.7737 23.0445 31.8139 23.3097 31.8139C23.5701 31.8139 23.7962 31.776 23.9879 31.7003C24.1821 31.6245 24.3324 31.5192 24.4389 31.3842C24.5455 31.2493 24.5987 31.0942 24.5987 30.919C24.5987 30.7557 24.5502 30.6184 24.4531 30.5071C24.3584 30.3958 24.2188 30.3011 24.0341 30.223C23.8518 30.1449 23.6281 30.0739 23.3629 30.0099L22.571 29.8111C21.9579 29.6619 21.4737 29.4287 21.1186 29.1115C20.7635 28.7943 20.5871 28.367 20.5895 27.8295C20.5871 27.3892 20.7043 27.0045 20.9411 26.6754C21.1802 26.3464 21.508 26.0895 21.9247 25.9048C22.3414 25.7202 22.8149 25.6278 23.3452 25.6278C23.8849 25.6278 24.3561 25.7202 24.7585 25.9048C25.1634 26.0895 25.4782 26.3464 25.7031 26.6754C25.928 27.0045 26.044 27.3857 26.0511 27.8189H24.5774Z" fill="#E8C126"/>
<path d="M27.3551 26.995V25.7273H33.3281V26.995H31.1016V33H29.5817V26.995H27.3551Z" fill="#E8C126"/>
<path d="M40.7152 25.7273V33H39.3871L36.223 28.4226H36.1697V33H34.6321V25.7273H35.9815L39.1207 30.3011H39.1847V25.7273H40.7152Z" fill="#E8C126"/>
</svg>
