<svg width="21" height="20" viewBox="0 0 21 20" fill="none" xmlns="http://www.w3.org/2000/svg">
<path d="M10.5 20C16.0228 20 20.5 15.5228 20.5 10C20.5 4.47715 16.0228 0 10.5 0C4.97715 0 0.5 4.47715 0.5 10C0.5 15.5228 4.97715 20 10.5 20Z" fill="white"/>
<path d="M13.1872 16.0898C11.8161 16.1798 10.8199 15.1662 10.8039 13.9518C10.8001 13.6673 10.8503 13.3902 10.9463 13.1344C11.1095 12.698 11.407 12.3242 11.8004 12.0817C12.1512 11.8652 12.5789 11.7535 13.0564 11.7958C12.8095 11.7455 12.5426 11.719 12.2573 11.7152C10.5162 11.6907 9.04882 13.1037 9.07155 14.5306C9.08063 15.0999 9.30451 15.5934 9.68331 15.9777V15.9781C10.2281 16.5303 11.0934 16.8573 12.1039 16.8577C12.2182 16.8315 12.3313 16.8025 12.4432 16.7704C13.3472 16.5132 14.1756 16.0751 14.8861 15.4982L15.0713 15.3351C14.9984 15.3938 14.1983 16.0231 13.1872 16.0898Z" fill="url(#paint0_radial_1130_5378)"/>
<path d="M13.6772 9.42267C12.6841 8.61909 12.0667 8.76369 11.3855 8.57227C10.4727 8.59691 9.27901 8.87898 8.02558 9.85663C8.0534 9.84324 8.60262 9.58043 9.48611 9.69317C9.59098 9.70688 9.70099 9.72542 9.815 9.75038C8.22201 10.4707 7.07129 12.0943 7.07129 13.6879C7.07129 14.4151 7.2982 15.0954 7.6934 15.677C8.07208 16.2352 8.60551 16.7024 9.24156 17.0324C9.65553 17.1056 10.0818 17.1437 10.5174 17.1437C10.5713 17.1437 10.6248 17.1429 10.678 17.1418H10.6784C11.1799 17.1309 11.669 17.0697 12.1404 16.9623C11.0783 16.9619 10.1687 16.6223 9.59611 16.0489V16.0485C9.19795 15.6494 8.96262 15.1368 8.95308 14.5456C8.92927 13.0637 10.4716 11.5963 12.3017 11.6216C12.6016 11.6257 12.8821 11.6532 13.1416 11.7054C13.4412 11.7648 14.3258 12.086 14.2433 12.4485C14.2433 12.4485 14.3837 12.4108 14.5281 12.2303C15.0164 11.6213 14.8511 10.3724 13.6772 9.42267Z" fill="url(#paint1_radial_1130_5378)"/>
<path d="M13.6772 9.42267C12.6841 8.61909 12.0667 8.76369 11.3855 8.57227C10.4727 8.59691 9.27901 8.87898 8.02558 9.85663C8.0534 9.84324 8.60262 9.58043 9.48611 9.69317C9.59098 9.70688 9.70099 9.72542 9.815 9.75038C8.22201 10.4707 7.07129 12.0943 7.07129 13.6879C7.07129 14.4151 7.2982 15.0954 7.6934 15.677C8.07208 16.2352 8.60551 16.7024 9.24156 17.0324C9.65553 17.1056 10.0818 17.1437 10.5174 17.1437C10.5713 17.1437 10.6248 17.1429 10.678 17.1418H10.6784C11.1799 17.1309 11.669 17.0697 12.1404 16.9623C11.0783 16.9619 10.1687 16.6223 9.59611 16.0489V16.0485C9.19795 15.6494 8.96262 15.1368 8.95308 14.5456C8.92927 13.0637 10.4716 11.5963 12.3017 11.6216C12.6016 11.6257 12.8821 11.6532 13.1416 11.7054C13.4412 11.7648 14.3258 12.086 14.2433 12.4485C14.2433 12.4485 14.3837 12.4108 14.5281 12.2303C15.0164 11.6213 14.8511 10.3724 13.6772 9.42267Z" fill="url(#paint2_radial_1130_5378)"/>
<path d="M10.5065 2.85742C6.55817 2.85742 3.35742 6.06436 3.35742 10.046C3.35742 12.0767 4.18989 13.9113 5.52975 15.2215C5.95936 15.642 6.44095 16.008 6.96389 16.3095V16.3091C6.9127 16.252 6.86302 16.1939 6.81436 16.1346C6.92397 16.2319 7.03937 16.3263 7.15984 16.4182C7.5431 16.6235 7.94731 16.7947 8.36827 16.9272C8.6528 17.0172 8.94494 17.0898 9.2436 17.1431C8.61399 16.8101 8.08597 16.3384 7.71112 15.7748C7.31985 15.1878 7.09524 14.5009 7.09524 13.7668C7.09524 12.158 8.23438 10.5189 9.81114 9.79166C9.69828 9.76647 9.58947 9.74775 9.48566 9.73383C8.61105 9.62009 8.06747 9.88533 8.03985 9.89893C9.28058 8.91194 10.4622 8.62717 11.3658 8.6023C12.3674 8.57446 13.0268 8.86618 13.0464 8.87458C12.6356 7.87479 12.0582 7.93518 12.0582 7.93518C12.3228 7.87951 12.5304 7.88687 12.8109 7.88687C15.0557 7.88687 16.9418 9.71815 16.9418 12.0223C16.9418 12.8442 16.5763 13.7642 16.1767 14.4101C16.458 14.0358 16.7058 13.6313 16.9134 13.2028C17.3773 12.248 17.6431 11.1736 17.6431 10.046C17.6431 6.06436 14.4548 2.85742 10.5065 2.85742Z" fill="url(#paint3_radial_1130_5378)"/>
<path opacity="0.19" d="M10.5065 2.85742C6.55817 2.85742 3.35742 6.06436 3.35742 10.046C3.35742 12.0767 4.18989 13.9113 5.52975 15.2215C5.95936 15.642 6.44095 16.008 6.96389 16.3095V16.3091C6.9127 16.252 6.86302 16.1939 6.81436 16.1346C6.92397 16.2319 7.03937 16.3263 7.15984 16.4182C7.5431 16.6235 7.94731 16.7947 8.36827 16.9272C8.6528 17.0172 8.94494 17.0898 9.2436 17.1431C8.61399 16.8101 8.08597 16.3384 7.71112 15.7748C7.31985 15.1878 7.09524 14.5009 7.09524 13.7668C7.09524 12.158 8.23438 10.5189 9.81114 9.79166C9.69828 9.76647 9.58947 9.74775 9.48566 9.73383C8.61105 9.62009 8.06747 9.88533 8.03985 9.89893C9.28058 8.91194 10.4622 8.62717 11.3658 8.6023C12.3674 8.57446 13.0268 8.86618 13.0464 8.87458C12.6356 7.87479 12.0582 7.93518 12.0582 7.93518C12.3228 7.87951 12.5304 7.88687 12.8109 7.88687C15.0557 7.88687 16.9418 9.71815 16.9418 12.0223C16.9418 12.8442 16.5763 13.7642 16.1767 14.4101C16.458 14.0358 16.7058 13.6313 16.9134 13.2028C17.3773 12.248 17.6431 11.1736 17.6431 10.046C17.6431 6.06436 14.4548 2.85742 10.5065 2.85742Z" fill="url(#paint4_radial_1130_5378)"/>
<path d="M17.3574 10.8624C17.3574 10.7262 17.3528 10.5911 17.3435 10.4571C17.1373 7.48747 14.6821 5.14258 11.6838 5.14258C10.0963 5.14258 8.66083 5.7999 7.63097 6.8596C7.63097 6.8596 7.98749 6.73867 8.5416 6.7296C8.7471 6.72596 8.97977 6.73794 9.23177 6.77717C7.02104 7.74394 5.48147 9.90254 5.36333 12.4864C5.2935 14.0218 5.84479 15.2058 6.89649 16.1416C7.00453 16.2382 7.11836 16.332 7.23727 16.423C7.61524 16.6268 8.01403 16.7968 8.42926 16.9283C8.70992 17.0176 8.99801 17.0895 9.29268 17.1426C8.67156 16.812 8.15072 16.344 7.78097 15.7847C7.3951 15.2022 7.17355 14.5205 7.17355 13.792C7.17355 12.1955 8.29711 10.5689 9.8525 9.84737C9.74118 9.82229 9.63377 9.80379 9.53137 9.78998C8.66874 9.67703 8.13248 9.94032 8.10531 9.95374C9.32916 8.9743 10.4947 8.69179 11.386 8.66703C12.3739 8.63948 13.0244 8.92889 13.0437 8.93723C12.6385 7.94509 12.0689 8.00502 12.0689 8.00502C12.33 7.94985 12.5347 7.95707 12.8114 7.95707C15.0257 7.95707 16.886 9.77434 16.886 12.0608C16.886 12.8765 16.5256 13.7894 16.1315 14.4304C16.4089 14.0589 16.6534 13.6577 16.8581 13.2324L16.8505 13.2287C17.1764 12.5075 17.3574 11.7064 17.3574 10.8624Z" fill="url(#paint5_radial_1130_5378)"/>
<path d="M10.0676 14.8693C10.0676 15.8899 10.7957 16.6797 12.5003 16.7683C12.3863 16.801 12.2712 16.8305 12.1547 16.8571C11.1259 16.8568 10.2448 16.5241 9.69015 15.9626V15.9622C9.47781 15.5831 9.35742 15.1508 9.35742 14.6917C9.35742 13.3138 10.4413 12.1753 11.8458 12C11.4452 12.2467 11.1423 12.6269 10.9761 13.0706C10.4462 13.4561 10.0676 14.1657 10.0676 14.8693Z" fill="url(#paint6_radial_1130_5378)"/>
<path d="M13.0713 11.7962C12.592 11.7537 12.1628 11.866 11.8106 12.0836C10.4261 12.257 9.35752 13.3823 9.35752 14.7446C9.35752 15.1983 9.47619 15.6258 9.6856 16.0006C9.30538 15.6142 9.08066 15.118 9.07155 14.5457C9.04873 13.1111 10.5216 11.6906 12.2692 11.7152C12.5556 11.719 12.8234 11.7457 13.0713 11.7962Z" fill="url(#paint7_radial_1130_5378)"/>
<path opacity="0.25" d="M14.1555 12.5298C14.2359 12.1714 13.9429 12.0417 13.9429 12.0417C13.706 11.9177 13.4408 11.8263 13.1489 11.7675C12.8958 11.7159 12.6224 11.6887 12.3301 11.6847C10.5462 11.6597 9.04272 13.1104 9.06601 14.5754C9.07523 15.1599 9.3047 15.6666 9.69282 16.0613V16.0615C10.251 16.6285 11.1376 16.9643 12.1729 16.9646C11.7133 17.0707 11.2366 17.1313 10.7477 17.142H10.7474C9.5902 16.6697 8.78613 15.6287 8.78613 14.4202C8.78613 12.7674 10.2903 11.4277 12.1453 11.4277C13.0627 11.4277 13.8943 11.7553 14.5004 12.2864C14.3689 12.4721 14.1555 12.5298 14.1555 12.5298Z" fill="url(#paint8_radial_1130_5378)"/>
<path d="M7.27549 14.11C7.27549 14.6914 7.42966 15.2307 7.70673 15.7114L7.70153 15.7151C7.30116 15.1305 7.07129 14.4464 7.07129 13.7153C7.07129 12.1132 8.23706 10.4809 9.85088 9.7567C9.73537 9.73161 9.62393 9.71297 9.51769 9.69919C8.62265 9.58583 8.06624 9.85006 8.03805 9.86352C9.30788 8.88062 10.5172 8.59704 11.442 8.57227C12.1321 8.76472 12.6631 8.99684 13.0713 9.24211L13.0694 9.24466C11.9552 8.62516 10.2654 9.2629 10.2654 9.2629C11.7881 9.42692 11.9552 9.84417 11.9552 9.84417C9.35913 10.0417 7.27549 11.9744 7.27549 14.11Z" fill="url(#paint9_radial_1130_5378)"/>
<path d="M7.27549 14.11C7.27549 14.6914 7.42966 15.2307 7.70673 15.7114L7.70153 15.7151C7.30116 15.1305 7.07129 14.4464 7.07129 13.7153C7.07129 12.1132 8.23706 10.4809 9.85088 9.7567C9.73537 9.73161 9.62393 9.71297 9.51769 9.69919C8.62265 9.58583 8.06624 9.85006 8.03805 9.86352C9.30788 8.88062 10.5172 8.59704 11.442 8.57227C12.1321 8.76472 12.6631 8.99684 13.0713 9.24211L13.0694 9.24466C11.9552 8.62516 10.2654 9.2629 10.2654 9.2629C11.7881 9.42692 11.9552 9.84417 11.9552 9.84417C9.35913 10.0417 7.27549 11.9744 7.27549 14.11Z" fill="url(#paint10_radial_1130_5378)"/>
<path opacity="0.29" d="M6.78613 13.6603C6.78613 11.9094 7.93748 10.4032 9.58804 9.73497L9.59068 9.71484C9.69856 9.7288 9.81171 9.74748 9.92899 9.77283C8.29039 10.5018 7.10671 12.1452 7.10671 13.7583C7.10671 14.4942 7.34011 15.183 7.74663 15.7715C8.13616 16.3365 8.68486 16.8095 9.33913 17.1434C9.02878 17.0898 8.72519 17.0172 8.4296 16.9269L8.43183 16.9195C7.42424 16.1321 6.78613 14.9639 6.78613 13.6603Z" fill="url(#paint11_radial_1130_5378)"/>
<path d="M8.5453 6.70912C7.99055 6.71808 7.63362 6.83745 7.63362 6.83745C8.66467 5.79142 10.1018 5.14258 11.6911 5.14258C14.6929 5.14258 17.151 7.45722 17.3574 10.3885C16.421 8.39895 14.2647 7.00669 11.7539 7.00669C8.38408 7.00669 5.65255 9.51455 5.65255 12.6079C5.65255 13.8826 6.11662 15.0584 6.89828 15.9997C5.84536 15.0759 5.29343 13.9073 5.36334 12.3917C5.48161 9.84113 7.02298 7.71038 9.23628 6.75608C8.98398 6.71736 8.75104 6.70554 8.5453 6.70912Z" fill="url(#paint12_radial_1130_5378)"/>
<path opacity="0.53" d="M8.5453 6.70912C7.99055 6.71808 7.63362 6.83745 7.63362 6.83745C8.66467 5.79142 10.1018 5.14258 11.6911 5.14258C14.6929 5.14258 17.151 7.45722 17.3574 10.3885C16.421 8.39895 14.2647 7.00669 11.7539 7.00669C8.38408 7.00669 5.65255 9.51455 5.65255 12.6079C5.65255 13.8826 6.11662 15.0584 6.89828 15.9997C5.84536 15.0759 5.29343 13.9073 5.36334 12.3917C5.48161 9.84113 7.02298 7.71038 9.23628 6.75608C8.98398 6.71736 8.75104 6.70554 8.5453 6.70912Z" fill="url(#paint13_radial_1130_5378)"/>
<path opacity="0.25" d="M8.38037 6.57289C8.58626 6.56921 8.81937 6.58136 9.07185 6.6211C6.85687 7.60072 5.31439 9.78823 5.19603 12.4066C5.12614 13.9625 5.6784 15.1623 6.73208 16.1106C6.78016 16.1703 6.82926 16.2287 6.87985 16.2861V16.2866C6.36305 15.9832 5.88711 15.6153 5.46255 15.1924C5.02889 14.3321 4.78613 13.369 4.78613 12.3525C4.78613 9.8677 6.23606 7.70344 8.38037 6.57289Z" fill="url(#paint14_radial_1130_5378)"/>
<defs>
<radialGradient id="paint0_radial_1130_5378" cx="0" cy="0" r="1" gradientUnits="userSpaceOnUse" gradientTransform="translate(14.0942 15.9612) scale(6.04702 6.70222)">
<stop stop-color="#867BC4"/>
<stop offset="1" stop-color="#5F2E86"/>
</radialGradient>
<radialGradient id="paint1_radial_1130_5378" cx="0" cy="0" r="1" gradientUnits="userSpaceOnUse" gradientTransform="translate(12.5699 12.5761) scale(9.18935 9.08628)">
<stop stop-color="#998FDF"/>
<stop offset="0.4863" stop-color="#6E5CBE"/>
<stop offset="1" stop-color="#000009"/>
</radialGradient>
<radialGradient id="paint2_radial_1130_5378" cx="0" cy="0" r="1" gradientUnits="userSpaceOnUse" gradientTransform="translate(8.00641 13.7727) rotate(120.4) scale(8.75169 17.6569)">
<stop stop-color="#9564AC"/>
<stop offset="0.6435" stop-color="#5C3B9C" stop-opacity="0"/>
</radialGradient>
<radialGradient id="paint3_radial_1130_5378" cx="0" cy="0" r="1" gradientUnits="userSpaceOnUse" gradientTransform="translate(16.1676 7.69329) scale(15.4809 15.6117)">
<stop stop-color="#998FDF"/>
<stop offset="0.4275" stop-color="#6E5CBE"/>
<stop offset="0.8446" stop-color="#8C4192"/>
</radialGradient>
<radialGradient id="paint4_radial_1130_5378" cx="0" cy="0" r="1" gradientUnits="userSpaceOnUse" gradientTransform="translate(8.40145 7.52067) rotate(49.5369) scale(3.32634 4.66646)">
<stop stop-color="white"/>
<stop offset="1" stop-color="white" stop-opacity="0"/>
</radialGradient>
<radialGradient id="paint5_radial_1130_5378" cx="0" cy="0" r="1" gradientUnits="userSpaceOnUse" gradientTransform="translate(7.99681 15.7287) scale(13.5197 13.7162)">
<stop stop-color="#51339D"/>
<stop offset="0.4171" stop-color="#9E84D5" stop-opacity="0.5725"/>
<stop offset="0.9259" stop-color="#9489DB" stop-opacity="0"/>
</radialGradient>
<radialGradient id="paint6_radial_1130_5378" cx="0" cy="0" r="1" gradientUnits="userSpaceOnUse" gradientTransform="translate(11.8255 13.3074) scale(3.88566 3.88398)">
<stop offset="0.0181" stop-color="#4B338C"/>
<stop offset="1" stop-color="#4B338C" stop-opacity="0"/>
</radialGradient>
<radialGradient id="paint7_radial_1130_5378" cx="0" cy="0" r="1" gradientUnits="userSpaceOnUse" gradientTransform="translate(11.5106 12.2882) scale(4.75526 4.76656)">
<stop stop-color="#352086"/>
<stop offset="1" stop-color="#352086" stop-opacity="0"/>
</radialGradient>
<radialGradient id="paint8_radial_1130_5378" cx="0" cy="0" r="1" gradientUnits="userSpaceOnUse" gradientTransform="translate(10.4836 15.5312) scale(3.86763 3.87857)">
<stop stop-color="white"/>
<stop offset="1" stop-color="white" stop-opacity="0"/>
</radialGradient>
<radialGradient id="paint9_radial_1130_5378" cx="0" cy="0" r="1" gradientUnits="userSpaceOnUse" gradientTransform="translate(7.10841 14.1647) scale(5.73772 5.63018)">
<stop stop-color="#422085"/>
<stop offset="1" stop-color="#422085" stop-opacity="0"/>
</radialGradient>
<radialGradient id="paint10_radial_1130_5378" cx="0" cy="0" r="1" gradientUnits="userSpaceOnUse" gradientTransform="translate(8.03692 7.45889) scale(6.63332 6.50899)">
<stop offset="0.0829" stop-color="#422085"/>
<stop offset="0.7132" stop-color="#422085" stop-opacity="0"/>
</radialGradient>
<radialGradient id="paint11_radial_1130_5378" cx="0" cy="0" r="1" gradientUnits="userSpaceOnUse" gradientTransform="translate(7.86729 14.126) scale(2.91913 3.14439)">
<stop stop-color="white"/>
<stop offset="1" stop-color="white" stop-opacity="0"/>
</radialGradient>
<radialGradient id="paint12_radial_1130_5378" cx="0" cy="0" r="1" gradientUnits="userSpaceOnUse" gradientTransform="translate(5.45543 13.5847) scale(11.2048 11.208)">
<stop stop-color="#4C2376"/>
<stop offset="0.6989" stop-color="#301C86" stop-opacity="0"/>
</radialGradient>
<radialGradient id="paint13_radial_1130_5378" cx="0" cy="0" r="1" gradientUnits="userSpaceOnUse" gradientTransform="translate(4.2728 4.04922) scale(9.02405 9.02657)">
<stop stop-color="#4C2376"/>
<stop offset="1" stop-color="#301C86" stop-opacity="0"/>
</radialGradient>
<radialGradient id="paint14_radial_1130_5378" cx="0" cy="0" r="1" gradientUnits="userSpaceOnUse" gradientTransform="translate(6.00547 15.5818) scale(6.97497 7.15733)">
<stop stop-color="white"/>
<stop offset="1" stop-color="white" stop-opacity="0"/>
</radialGradient>
</defs>
</svg>
