<svg width="36" height="36" viewBox="0 0 36 36" fill="none" xmlns="http://www.w3.org/2000/svg">
<g filter="url(#filter0_d_1245_10287)">
<path d="M2 4.2C2 3.0799 2 2.51984 2.21799 2.09202C2.40973 1.71569 2.71569 1.40973 3.09202 1.21799C3.51984 1 4.07989 1 5.2 1H30.8C31.9201 1 32.4802 1 32.908 1.21799C33.2843 1.40973 33.5903 1.71569 33.782 2.09202C34 2.51984 34 3.07989 34 4.2V29.8C34 30.9201 34 31.4802 33.782 31.908C33.5903 32.2843 33.2843 32.5903 32.908 32.782C32.4802 33 31.9201 33 30.8 33H5.2C4.0799 33 3.51984 33 3.09202 32.782C2.71569 32.5903 2.40973 32.2843 2.21799 31.908C2 31.4802 2 30.9201 2 29.8V4.2Z" fill="#F9F9F9"/>
<path d="M5.2 1.5H30.8C31.3683 1.5 31.7645 1.50039 32.0729 1.52559C32.3755 1.55031 32.5493 1.5964 32.681 1.66349C32.9632 1.8073 33.1927 2.03677 33.3365 2.31901C33.4036 2.45069 33.4497 2.62454 33.4744 2.92712C33.4996 3.23554 33.5 3.6317 33.5 4.2V29.8C33.5 30.3683 33.4996 30.7645 33.4744 31.0729C33.4497 31.3755 33.4036 31.5493 33.3365 31.681C33.1927 31.9632 32.9632 32.1927 32.681 32.3365C32.5493 32.4036 32.3755 32.4497 32.0729 32.4744C31.7645 32.4996 31.3683 32.5 30.8 32.5H5.2C4.6317 32.5 4.23554 32.4996 3.92712 32.4744C3.62454 32.4497 3.45069 32.4036 3.31901 32.3365C3.03677 32.1927 2.8073 31.9632 2.66349 31.681C2.5964 31.5493 2.55031 31.3755 2.52559 31.0729C2.50039 30.7645 2.5 30.3683 2.5 29.8V4.2C2.5 3.6317 2.50039 3.23554 2.52559 2.92712C2.55031 2.62454 2.5964 2.45069 2.66349 2.31901C2.8073 2.03677 3.03677 1.8073 3.31901 1.66349C3.45069 1.5964 3.62454 1.55031 3.92712 1.52559C4.23554 1.50039 4.6317 1.5 5.2 1.5Z" stroke="#B0AEAC"/>
<g clip-path="url(#clip0_1245_10287)">
<path d="M18.0002 12.8333C15.7002 12.8333 13.8335 14.6999 13.8335 16.9999C13.8335 19.2999 15.7002 21.1666 18.0002 21.1666C20.3002 21.1666 22.1668 19.2999 22.1668 16.9999C22.1668 14.6999 20.3002 12.8333 18.0002 12.8333ZM9.66683 17.8333H11.3335C11.7918 17.8333 12.1668 17.4583 12.1668 16.9999C12.1668 16.5416 11.7918 16.1666 11.3335 16.1666H9.66683C9.2085 16.1666 8.8335 16.5416 8.8335 16.9999C8.8335 17.4583 9.2085 17.8333 9.66683 17.8333ZM24.6668 17.8333H26.3335C26.7918 17.8333 27.1668 17.4583 27.1668 16.9999C27.1668 16.5416 26.7918 16.1666 26.3335 16.1666H24.6668C24.2085 16.1666 23.8335 16.5416 23.8335 16.9999C23.8335 17.4583 24.2085 17.8333 24.6668 17.8333ZM17.1668 8.66659V10.3333C17.1668 10.7916 17.5418 11.1666 18.0002 11.1666C18.4585 11.1666 18.8335 10.7916 18.8335 10.3333V8.66659C18.8335 8.20825 18.4585 7.83325 18.0002 7.83325C17.5418 7.83325 17.1668 8.20825 17.1668 8.66659ZM17.1668 23.6666V25.3333C17.1668 25.7916 17.5418 26.1666 18.0002 26.1666C18.4585 26.1666 18.8335 25.7916 18.8335 25.3333V23.6666C18.8335 23.2083 18.4585 22.8333 18.0002 22.8333C17.5418 22.8333 17.1668 23.2083 17.1668 23.6666ZM12.9918 10.8166C12.6668 10.4916 12.1335 10.4916 11.8168 10.8166C11.4918 11.1416 11.4918 11.6749 11.8168 11.9916L12.7002 12.8749C13.0252 13.1999 13.5585 13.1999 13.8752 12.8749C14.1918 12.5499 14.2002 12.0166 13.8752 11.6999L12.9918 10.8166ZM23.3002 21.1249C22.9752 20.7999 22.4418 20.7999 22.1252 21.1249C21.8002 21.4499 21.8002 21.9833 22.1252 22.2999L23.0085 23.1833C23.3335 23.5083 23.8668 23.5083 24.1835 23.1833C24.5085 22.8583 24.5085 22.3249 24.1835 22.0083L23.3002 21.1249ZM24.1835 11.9916C24.5085 11.6666 24.5085 11.1333 24.1835 10.8166C23.8585 10.4916 23.3252 10.4916 23.0085 10.8166L22.1252 11.6999C21.8002 12.0249 21.8002 12.5583 22.1252 12.8749C22.4502 13.1916 22.9835 13.1999 23.3002 12.8749L24.1835 11.9916ZM13.8752 22.2999C14.2002 21.9749 14.2002 21.4416 13.8752 21.1249C13.5502 20.7999 13.0168 20.7999 12.7002 21.1249L11.8168 22.0083C11.4918 22.3333 11.4918 22.8666 11.8168 23.1833C12.1418 23.4999 12.6752 23.5083 12.9918 23.1833L13.8752 22.2999Z" fill="#333333"/>
</g>
</g>
<defs>
<filter id="filter0_d_1245_10287" x="0" y="0" width="36" height="36" filterUnits="userSpaceOnUse" color-interpolation-filters="sRGB">
<feFlood flood-opacity="0" result="BackgroundImageFix"/>
<feColorMatrix in="SourceAlpha" type="matrix" values="0 0 0 0 0 0 0 0 0 0 0 0 0 0 0 0 0 0 127 0" result="hardAlpha"/>
<feOffset dy="1"/>
<feGaussianBlur stdDeviation="1"/>
<feComposite in2="hardAlpha" operator="out"/>
<feColorMatrix type="matrix" values="0 0 0 0 0.0627451 0 0 0 0 0.0941176 0 0 0 0 0.156863 0 0 0 0.04 0"/>
<feBlend mode="normal" in2="BackgroundImageFix" result="effect1_dropShadow_1245_10287"/>
<feBlend mode="normal" in="SourceGraphic" in2="effect1_dropShadow_1245_10287" result="shape"/>
</filter>
<clipPath id="clip0_1245_10287">
<rect width="20" height="20" fill="white" transform="translate(8 7)"/>
</clipPath>
</defs>
</svg>
