<svg width="24" height="25" viewBox="0 0 24 25" fill="none" xmlns="http://www.w3.org/2000/svg">
<path d="M9.11911 0.412822L9.38845 1.50381C8.32691 1.76617 7.31091 2.18682 6.3746 2.75162L5.79842 1.78678C6.82904 1.16265 7.94881 0.69934 9.11911 0.412822ZM14.8809 0.412822L14.6115 1.50381C15.6731 1.76617 16.6891 2.18682 17.6254 2.75162L18.2084 1.78678C17.1751 1.1632 16.0531 0.699946 14.8809 0.412822ZM1.72427 5.85753C1.10072 6.88966 0.637457 8.01045 0.350307 9.18163L1.44129 9.45096C1.70365 8.38943 2.1243 7.37343 2.68911 6.43711L1.72427 5.85753ZM1.12423 12.0625C1.12414 11.517 1.16517 10.9722 1.24696 10.4329L0.135519 10.2624C-0.0451731 11.4545 -0.0451731 12.6671 0.135519 13.8592L1.24696 13.6922C1.1653 13.1528 1.12427 12.608 1.12423 12.0625ZM18.2016 22.3348L17.6254 21.3734C16.6906 21.9387 15.6756 22.3594 14.615 22.6212L14.8843 23.7122C16.0532 23.4229 17.1716 22.9586 18.2016 22.3348ZM22.8758 12.0625C22.8757 12.608 22.8347 13.1528 22.753 13.6922L23.8645 13.8592C24.0452 12.6671 24.0452 11.4545 23.8645 10.2624L22.753 10.4329C22.8348 10.9722 22.8759 11.517 22.8758 12.0625ZM23.6497 14.94L22.5587 14.6707C22.297 15.7335 21.8763 16.7507 21.3109 17.6879L22.2757 18.2675C22.8999 17.2345 23.3632 16.1124 23.6497 14.94ZM13.6297 22.8156C12.5494 22.9792 11.4506 22.9792 10.3703 22.8156L10.2033 23.927C11.3943 24.1077 12.6057 24.1077 13.7967 23.927L13.6297 22.8156ZM20.7552 18.513C20.1072 19.3917 19.3302 20.1676 18.4505 20.8143L19.1187 21.7212C20.0876 21.0079 20.9449 20.1541 21.6621 19.188L20.7552 18.513ZM18.4505 3.30735C19.3302 3.95529 20.1072 4.73227 20.7552 5.61205L21.6621 4.93701C20.9474 3.97006 20.0925 3.11513 19.1255 2.40046L18.4505 3.30735ZM3.24483 5.61205C3.89278 4.73227 4.66976 3.95529 5.54954 3.30735L4.87449 2.40046C3.90754 3.11513 3.05262 3.97006 2.33795 4.93701L3.24483 5.61205ZM22.2757 5.85753L21.3109 6.43711C21.8762 7.37195 22.2969 8.3869 22.5587 9.44756L23.6497 9.17822C23.3625 8.00813 22.8992 6.88845 22.2757 5.85753ZM10.3703 1.30948C11.4506 1.14581 12.5494 1.14581 13.6297 1.30948L13.7967 0.198034C12.6057 0.0173221 11.3943 0.0173221 10.2033 0.198034L10.3703 1.30948ZM3.82101 22.0212L1.49925 22.5599L2.04134 20.2381L0.946941 19.9824L0.404856 22.3042C0.370939 22.4481 0.365734 22.5973 0.389539 22.7433C0.413344 22.8892 0.465692 23.0291 0.543588 23.1548C0.621485 23.2805 0.723402 23.3896 0.843508 23.4759C0.963615 23.5622 1.09956 23.624 1.24355 23.6577C1.41196 23.6952 1.58655 23.6952 1.75495 23.6577L4.07671 23.1224L3.82101 22.0212ZM1.17878 18.9801L2.27658 19.2323L2.65161 17.6231C2.10394 16.7045 1.69604 15.7094 1.44129 14.6707L0.350307 14.94C0.595705 15.9343 0.966907 16.8932 1.45493 17.7936L1.17878 18.9801ZM6.42915 21.4143L4.81994 21.7893L5.07564 22.8871L6.25868 22.611C7.15838 23.1005 8.11751 23.4718 9.11229 23.7156L9.38163 22.6246C8.34612 22.3666 7.35459 21.9564 6.43938 21.4075L6.42915 21.4143ZM12 2.31182C6.61325 2.31523 2.25272 6.68259 2.25272 12.0659C2.25568 13.8995 2.77433 15.6953 3.74941 17.2481L2.81185 21.2507L6.81099 20.3131C11.3693 23.1803 17.3902 21.8132 20.2574 17.2583C23.1247 12.7035 21.7609 6.68259 17.2061 3.81193C15.6467 2.83134 13.842 2.31132 12 2.31182Z" fill="#3A76F0"/>
</svg>
