<svg width="167" height="26" viewBox="0 0 167 26" fill="none" xmlns="http://www.w3.org/2000/svg">
<path d="M42.1173 12.8907H35.6626V6.3993H42.4678C44.9587 6.3993 46.2041 7.49789 46.2041 9.69564C46.2041 11.8261 44.8413 12.8918 42.1173 12.8918M46.7565 6.32365C45.8665 5.53155 44.6344 5.1355 43.0441 5.1355L33.8003 5.18667V20.7172H35.6626L35.6459 14.1056H42.5245C44.2489 14.1056 45.6073 13.7095 46.5979 12.9174C47.5886 12.1253 48.0842 11.0262 48.0842 9.62054C48.0842 8.2149 47.642 7.1163 46.7576 6.32365H46.7565ZM58.8115 17.4559C58.6334 17.9639 58.3293 18.4185 57.9276 18.777C57.0933 19.5913 55.8206 19.9979 54.1084 19.9979C52.562 19.9979 51.3761 19.6086 50.5484 18.8109C49.7207 18.0132 49.3063 16.9603 49.3063 15.633C49.3063 14.9422 49.4148 14.3286 49.6312 13.7935C49.8475 13.2584 50.1618 12.8067 50.5735 12.4385C51.4301 11.6581 52.6082 11.2676 54.109 11.2676C57.4331 11.2676 59.0958 12.7227 59.0958 15.633C59.0958 16.3245 59.0012 16.9319 58.8176 17.4559M59.1553 11.7265C58.0205 10.6919 56.3407 10.169 54.1145 10.169C52.0119 10.169 50.3866 10.6974 49.2407 11.7543C48.2061 12.7111 47.6832 14.0016 47.6832 15.6269C47.6832 17.2401 48.2172 18.5417 49.2852 19.5318C49.8748 20.0658 50.5618 20.453 51.3466 20.6921C52.1315 20.9313 53.0521 21.0509 54.109 21.0509C56.3229 21.0509 58.0027 20.5392 59.1664 19.5157C60.201 18.5812 60.7239 17.2907 60.7239 15.6264C60.7239 13.9576 60.201 12.656 59.1553 11.7204V11.7265ZM73.2384 17.9048C73.2384 19.9952 71.3655 21.0404 67.6203 21.0404C66.4755 21.0404 65.511 20.968 64.7278 20.8223C63.9446 20.6766 63.3077 20.4357 62.8187 20.1003C62.4414 19.845 62.1322 19.5013 61.9182 19.099C61.6957 18.6874 61.551 18.1701 61.4843 17.5415L63.227 17.5249C63.227 18.3481 63.5319 18.9533 64.1421 19.3427C64.7968 19.8099 65.9554 20.0436 67.6203 20.0436C70.238 20.0436 71.5474 19.3872 71.5474 18.0755C71.5474 17.3079 71.1024 16.7806 70.2302 16.4902C70.0522 16.4346 68.9937 16.2872 67.0596 16.0486C65.1255 15.8099 63.9112 15.5952 63.434 15.4061C62.4004 14.9945 61.8837 14.2547 61.8837 13.1878C61.8837 12.142 62.3454 11.3633 63.2743 10.8526C63.7304 10.6413 64.3006 10.4777 64.9853 10.3604C65.6701 10.243 66.4627 10.1851 67.3639 10.1851C70.9695 10.1851 72.7723 11.3165 72.7723 13.5783H71.1147C71.1147 11.9874 69.8464 11.1864 67.3127 11.1864C66.0233 11.1864 65.0615 11.3533 64.428 11.6703C63.7944 11.9874 63.4779 12.488 63.4779 13.1555C63.4779 13.7785 63.9062 14.2291 64.7617 14.5072C65.2623 14.6518 66.4127 14.8187 68.2138 15.0078C69.8258 15.1524 70.9322 15.3583 71.5324 15.6197C72.6783 16.0647 73.2501 16.8212 73.2501 17.8875L73.2384 17.9048ZM80.0836 20.7378L79.3744 20.8379L78.9322 20.8713C77.7974 20.8713 76.9853 20.7072 76.4775 20.3779C75.9696 20.0486 75.7248 19.4728 75.7248 18.6535V11.5585H73.6634V10.5161H75.7143L75.731 7.16748H77.3196V10.5161H80.0864V11.5752L77.3196 11.5585V18.4543C77.3196 18.9678 77.4559 19.3221 77.7285 19.5112C78.001 19.7003 78.4872 19.8038 79.1881 19.8038C79.2882 19.8149 79.3994 19.8116 79.5218 19.7927C79.7073 19.7596 79.8911 19.7177 80.0725 19.667L80.0892 20.7239L80.0836 20.7378ZM91.0723 18.3848C90.6385 18.7408 90.1445 19.0123 89.5888 19.2025C89.0331 19.3927 88.394 19.4806 87.672 19.4806C84.3489 19.4806 82.688 18.1084 82.688 15.3644C82.688 14.0867 83.113 13.0865 83.9635 12.364C84.814 11.6414 86.0105 11.2804 87.5557 11.2804C89.1116 11.2804 90.2925 11.6447 91.0979 12.3723C91.9034 13.0999 92.3067 14.0755 92.3067 15.2982C92.3067 16.6315 91.895 17.6595 91.0729 18.3815M93.8959 10.5189H92.3072L92.2905 12.2711C91.5897 11.5591 91.089 11.1102 90.7887 10.9211C89.8987 10.4316 88.7483 10.1879 87.336 10.1879C85.2679 10.1879 83.6881 10.6607 82.599 11.6052C81.5644 12.473 81.0482 13.7284 81.0482 15.3733C81.0482 16.1854 81.1789 16.9096 81.4403 17.5427C81.7018 18.1757 82.0833 18.7236 82.5845 19.168C83.6759 20.0792 85.2184 20.5353 87.2125 20.5353C89.6066 20.5353 91.3049 19.8806 92.3078 18.5706V20.384C92.3078 21.541 91.9434 22.4354 91.2153 23.0696C90.4872 23.7037 89.289 24.0152 87.6208 24.0152C86.0522 24.0152 84.9352 23.7927 84.2683 23.3677C83.7677 23.0356 83.4228 22.4599 83.2337 21.6405H81.5983C81.7763 22.7848 82.2658 23.6125 83.0445 24.1231C83.9568 24.7116 85.492 25.0059 87.6614 25.0059C91.811 25.0059 93.8914 23.4634 93.8914 20.3779V10.5233L93.8959 10.5189ZM102.49 11.5496C102.012 11.4717 101.568 11.4384 101.157 11.4384C98.5456 11.4384 97.24 12.8707 97.24 15.7343V20.7149H95.6681L95.6514 10.5233L97.2406 10.5389V12.3578H97.324C97.591 11.6414 98.0138 11.0979 98.5912 10.728C99.2242 10.3698 100.169 10.1907 101.425 10.1907H102.491V11.5591L102.49 11.5496ZM103.968 14.975C104.168 13.8169 104.619 12.9202 105.318 12.285C105.774 11.9179 106.291 11.6414 106.869 11.4578C107.446 11.2743 108.092 11.1819 108.82 11.1819C110.232 11.1819 111.379 11.5691 112.28 12.3434C113.181 13.1177 113.622 13.9954 113.622 14.9744L103.968 14.975ZM113.776 11.8305C113.22 11.2726 112.53 10.8604 111.707 10.5923C110.884 10.3242 109.927 10.1907 108.814 10.1907C106.756 10.1907 105.16 10.6691 104.024 11.6258C102.888 12.5826 102.322 13.8842 102.322 15.5318C102.322 17.1794 102.867 18.4799 103.957 19.4534C105.137 20.5214 106.794 21.0554 108.946 21.0554C109.802 21.0554 110.594 20.958 111.323 20.7645C112.051 20.5709 112.688 20.2961 113.233 19.9412C114.19 19.2542 114.795 18.406 115.052 17.3991H113.334C112.744 19.1419 111.278 20.0135 108.932 20.0135C107.275 20.0135 106.002 19.5874 105.113 18.7353C104.346 18.0049 103.963 17.0587 103.963 15.8962H115.29C115.29 14.1673 114.789 12.8117 113.771 11.8355L113.776 11.8305Z" fill="white"/>
<path d="M132.081 16.5525C132.081 19.5785 129.641 21.0915 124.76 21.0915C121.835 21.0915 119.701 20.5703 118.356 19.534C117.254 18.6774 116.705 17.3713 116.705 15.6136H118.669C118.669 18.4382 120.7 19.8505 124.759 19.8505C126.706 19.8505 128.113 19.5613 128.987 18.9839C129.721 18.4732 130.088 17.6728 130.088 16.5842C130.088 15.5062 129.587 14.7508 128.586 14.3169C128.019 14.0833 126.639 13.7885 124.431 13.4336C121.661 13.0109 119.865 12.5892 119.042 12.167C117.852 11.544 117.262 10.4888 117.262 8.99974C117.262 7.61079 117.763 6.57727 118.781 5.89921C119.871 5.15494 121.74 4.78226 124.386 4.78226C129.17 4.78226 131.562 6.37091 131.562 9.54821H129.58C129.58 7.16746 127.804 5.97819 124.252 5.97819C122.471 5.97819 121.168 6.21738 120.344 6.70132C119.564 7.21307 119.176 7.96401 119.176 8.95413C119.176 9.98876 119.677 10.7174 120.678 11.1402C121.212 11.3849 122.781 11.7243 125.384 12.1581C127.831 12.5253 129.483 12.9536 130.334 13.4375C131.503 14.0383 132.087 15.0784 132.087 16.5525H132.081ZM148.045 18.0967C147.311 18.6846 146.481 19.1257 145.557 19.4205C144.633 19.7153 143.598 19.8616 142.451 19.8616C140.113 19.8616 138.224 19.2314 136.781 17.9715C135.338 16.7116 134.619 15.0323 134.619 12.9335C134.619 10.7464 135.333 9.04202 136.764 7.82049C138.195 6.59897 140.09 5.98876 142.451 5.98876C144.844 5.98876 146.726 6.62734 148.095 7.90393C148.819 8.52693 149.353 9.25339 149.699 10.0861C150.045 10.9188 150.216 11.8683 150.216 12.9341C150.216 15.1101 149.492 16.8312 148.044 18.0961M149.089 19.1263C150.112 18.4043 150.87 17.5298 151.36 16.5019C151.85 15.4739 152.095 14.288 152.095 12.943C152.095 10.5317 151.294 8.60425 149.692 7.14242C148.836 6.34254 147.801 5.74791 146.589 5.35909C145.376 4.97027 143.991 4.77502 142.433 4.77502C139.407 4.77502 137.038 5.50927 135.313 6.97499C133.589 8.44071 132.727 10.4304 132.727 12.9419C132.727 15.386 133.597 17.3585 135.337 18.8582C137.078 20.3578 139.455 21.1082 142.468 21.1082C143.648 21.1082 144.676 21.0286 145.554 20.869C146.432 20.7094 147.178 20.4646 147.79 20.1348L150.693 22.1467L151.905 21.0331L149.094 19.1268L149.089 19.1263ZM166.805 20.7155H153.374V5.16273L155.22 5.12936V19.4122H166.817L166.8 20.7105L166.805 20.7155Z" fill="white"/>
<path d="M13.9877 15.9968C13.8965 18.763 14.01 21.5493 14.3298 22.2268C14.6497 22.9043 15.3333 24.221 17.6851 23.7938C19.6498 23.4367 20.3646 22.7458 20.6744 21.2206C20.8969 20.0986 21.3436 16.9819 21.3998 16.3439M11.1687 2.12727C11.1687 2.12727 0.516484 -1.56067 1.01711 6.83148C1.12836 8.61593 4.03421 20.3339 7.50855 16.7884C8.77791 15.494 9.92545 14.4788 9.92545 14.4788M16.9259 1.45421C16.5571 1.55211 22.8483 -0.494892 26.4233 3.37716C27.686 4.74554 26.223 10.3347 22.722 14.738" stroke="white" stroke-width="0.761506" stroke-linecap="round" stroke-linejoin="round"/>
<path d="M22.7162 14.7375C22.7162 14.7375 22.9387 15.6886 26.2595 15.109C27.7124 14.8548 26.838 15.8227 25.364 16.4029C24.1547 16.8785 21.4435 17.0003 21.3996 16.3434C21.2855 14.6468 22.8263 15.1624 22.7151 14.7375C22.615 14.3548 21.9252 13.9793 21.4691 13.0426C21.0714 12.2249 16.0123 5.95483 22.872 6.88599C23.1234 6.84149 21.0825 1.35464 14.6617 1.26564C8.24091 1.17664 8.45395 7.95733 8.45395 7.95733" stroke="white" stroke-width="0.761506" stroke-linecap="round" stroke-linejoin="bevel"/>
<path d="M12.1915 15.3177C11.296 16.1648 11.5596 16.3134 9.77072 16.626C7.96069 16.943 9.02423 17.5048 9.71843 17.6523C10.56 17.8303 12.5069 18.0834 13.8224 16.522C14.2229 16.0464 13.8202 15.2871 13.2701 15.0946C13.0042 15.0012 12.6488 14.8844 12.191 15.3171L12.1915 15.3177Z" stroke="white" stroke-width="0.761506" stroke-linejoin="round"/>
<path d="M12.1329 15.3032C12.0427 14.8048 12.3259 14.2129 12.6296 13.5187C13.0857 12.4785 14.1381 11.4372 13.2971 8.13591C12.6696 5.67561 8.45939 7.62416 8.45772 7.95791C8.45605 8.29166 8.64796 9.6489 8.38708 11.2287C8.04665 13.2912 9.93512 15.0351 12.1095 14.8571" stroke="white" stroke-width="0.761506" stroke-linecap="round" stroke-linejoin="round"/>
<path d="M11.1308 7.90673C11.1119 8.02076 11.3773 8.32391 11.7227 8.36508C12.0681 8.40624 12.3624 8.16816 12.3818 8.05469C12.4013 7.94121 12.136 7.8155 11.79 7.77434C11.444 7.73318 11.1492 7.79325 11.1308 7.90673Z" fill="white" stroke="white" stroke-width="0.25365"/>
<path d="M21.6387 7.67474C21.6577 7.78878 21.3929 8.09193 21.0469 8.13309C20.7009 8.17426 20.4061 7.93618 20.3872 7.82159C20.3683 7.70701 20.6336 7.58241 20.979 7.54124C21.3245 7.50008 21.6187 7.5596 21.6382 7.67363L21.6387 7.67474Z" fill="white" stroke="white" stroke-width="0.126825"/>
<path d="M22.8738 6.88599C22.9305 7.77988 22.6468 8.38786 22.6106 9.34016C22.5578 10.723 23.3883 12.305 22.1367 13.8903" stroke="white" stroke-width="0.761506" stroke-linecap="round" stroke-linejoin="round"/>
<path d="M13.9877 15.9968C13.8965 18.763 14.01 21.5493 14.3298 22.2268C14.6497 22.9043 15.3333 24.221 17.6851 23.7938C19.6498 23.4367 20.3646 22.7458 20.6744 21.2206C20.8969 20.0986 21.3436 16.9819 21.3998 16.3439M11.1687 2.12727C11.1687 2.12727 0.516484 -1.56067 1.01711 6.83148C1.12836 8.61593 4.03421 20.3339 7.50855 16.7884C8.77791 15.494 9.92545 14.4788 9.92545 14.4788M16.9259 1.45421C16.5571 1.55211 22.8483 -0.494892 26.4233 3.37716C27.686 4.74554 26.223 10.3347 22.722 14.738" stroke="white" stroke-width="0.761506" stroke-linecap="round" stroke-linejoin="round"/>
<path d="M22.7162 14.7375C22.7162 14.7375 22.9387 15.6886 26.2595 15.109C27.7124 14.8548 26.838 15.8227 25.364 16.4029C24.1547 16.8785 21.4435 17.0003 21.3996 16.3434C21.2855 14.6468 22.8263 15.1624 22.7151 14.7375C22.615 14.3548 21.9252 13.9793 21.4691 13.0426C21.0714 12.2249 16.0123 5.95483 22.872 6.88599C23.1234 6.84149 21.0825 1.35464 14.6617 1.26564C8.24091 1.17664 8.45395 7.95733 8.45395 7.95733" stroke="white" stroke-width="0.761506" stroke-linecap="round" stroke-linejoin="bevel"/>
<path d="M12.1915 15.3177C11.296 16.1648 11.5596 16.3134 9.77072 16.626C7.96069 16.943 9.02423 17.5048 9.71843 17.6523C10.56 17.8303 12.5069 18.0834 13.8224 16.522C14.2229 16.0464 13.8202 15.2871 13.2701 15.0946C13.0042 15.0012 12.6488 14.8844 12.191 15.3171L12.1915 15.3177Z" stroke="white" stroke-width="0.761506" stroke-linejoin="round"/>
<path d="M12.1329 15.3032C12.0427 14.8048 12.3259 14.2129 12.6296 13.5187C13.0857 12.4785 14.1381 11.4372 13.2971 8.13591C12.6696 5.67561 8.45939 7.62416 8.45772 7.95791C8.45605 8.29166 8.64796 9.6489 8.38708 11.2287C8.04665 13.2912 9.93512 15.0351 12.1095 14.8571" stroke="white" stroke-width="0.761506" stroke-linecap="round" stroke-linejoin="round"/>
</svg>
