<svg width="88" height="37" viewBox="0 0 88 37" fill="none" xmlns="http://www.w3.org/2000/svg">
<path fill-rule="evenodd" clip-rule="evenodd" d="M87.6925 18.8539C87.6925 12.618 84.672 7.69745 78.8989 7.69745C73.1014 7.69745 69.5938 12.618 69.5938 18.8051C69.5938 26.1372 73.7348 29.8398 79.6784 29.8398C82.5771 29.8398 84.7694 29.1821 86.4258 28.2564V23.3846C84.7694 24.2128 82.8694 24.7244 80.4578 24.7244C78.095 24.7244 76.0002 23.8962 75.7322 21.0218H87.6437C87.6437 20.7051 87.6925 19.4385 87.6925 18.8539ZM75.6591 16.5398C75.6591 13.7872 77.3399 12.6423 78.8745 12.6423C80.3604 12.6423 81.9437 13.7872 81.9437 16.5398H75.6591Z" fill="white"/>
<path fill-rule="evenodd" clip-rule="evenodd" d="M60.1912 7.69745C57.804 7.69745 56.2694 8.81796 55.4168 9.59745L55.1002 8.08719H49.7412V36.4898L55.831 35.1987L55.8553 28.3051C56.7322 28.9385 58.0233 29.8398 60.1668 29.8398C64.5271 29.8398 68.4976 26.3321 68.4976 18.6103C68.4733 11.5462 64.454 7.69745 60.1912 7.69745ZM58.7297 24.4808C57.2925 24.4808 56.4399 23.9692 55.8553 23.3359L55.831 14.2987C56.4643 13.5923 57.3412 13.1051 58.7297 13.1051C60.9463 13.1051 62.481 15.5898 62.481 18.7808C62.481 22.0449 60.9707 24.4808 58.7297 24.4808Z" fill="white"/>
<path fill-rule="evenodd" clip-rule="evenodd" d="M41.3613 6.26026L47.4754 4.94487V0L41.3613 1.29103V6.26026Z" fill="white"/>
<path d="M47.4754 8.11157H41.3613V29.4257H47.4754V8.11157Z" fill="white"/>
<path fill-rule="evenodd" clip-rule="evenodd" d="M34.809 9.91409L34.4193 8.11153H29.1577V29.4256H35.2475V14.9808C36.6846 13.1051 39.1205 13.4461 39.8757 13.7141V8.11153C39.0962 7.81922 36.2462 7.28332 34.809 9.91409Z" fill="white"/>
<path fill-rule="evenodd" clip-rule="evenodd" d="M22.6296 2.82562L16.686 4.09229L16.6616 23.6038C16.6616 27.209 19.3655 29.8641 22.9706 29.8641C24.968 29.8641 26.4296 29.4987 27.2334 29.0602V24.1154C26.4539 24.432 22.6052 25.5525 22.6052 21.9474V13.3H27.2334V8.11152H22.6052L22.6296 2.82562Z" fill="white"/>
<path fill-rule="evenodd" clip-rule="evenodd" d="M6.16282 14.2987C6.16282 13.3487 6.94231 12.9833 8.23333 12.9833C10.0846 12.9833 12.4231 13.5436 14.2744 14.5423V8.81796C12.2526 8.01412 10.2551 7.69745 8.23333 7.69745C3.28846 7.69745 0 10.2795 0 14.591C0 21.3141 9.25641 20.2423 9.25641 23.141C9.25641 24.2616 8.28205 24.6269 6.91795 24.6269C4.89615 24.6269 2.3141 23.7987 0.267948 22.6782V28.4757C2.53333 29.45 4.82308 29.8641 6.91795 29.8641C11.9846 29.8641 15.4679 27.3551 15.4679 22.9949C15.4436 15.7359 6.16282 17.0269 6.16282 14.2987Z" fill="white"/>
</svg>
