<svg width="244" height="32" viewBox="0 0 244 32" fill="none" xmlns="http://www.w3.org/2000/svg">
<g clip-path="url(#clip0_548_691)">
<path fill-rule="evenodd" clip-rule="evenodd" d="M87.8916 31.8708H119.035V0.64917H87.8916V31.8708Z" fill="#FB651E"/>
<path fill-rule="evenodd" clip-rule="evenodd" d="M137.294 11.122C134.419 11.122 132.257 13.3563 132.257 16.2386C132.257 19.121 134.419 21.3777 137.294 21.3777C139.144 21.3777 140.749 20.4169 141.618 18.8081L144.092 20.2829C142.71 22.6512 140.125 24.1929 137.294 24.1929C132.859 24.1929 129.338 20.6627 129.338 16.2386C129.338 11.8147 132.859 8.28442 137.294 8.28442C140.147 8.28442 142.71 9.80379 144.092 12.1945L141.618 13.6692C140.749 12.0605 139.144 11.122 137.294 11.122Z" fill="#FB651E"/>
<path fill-rule="evenodd" clip-rule="evenodd" d="M153.586 18.2498C153.586 16.44 152.271 15.077 150.577 15.077C148.839 15.077 147.524 16.44 147.524 18.2498C147.524 20.0596 148.839 21.4226 150.577 21.4226C152.249 21.4226 153.586 20.0596 153.586 18.2498ZM144.693 18.2498C144.693 14.9876 147.301 12.3734 150.577 12.3734C153.809 12.3734 156.416 14.9876 156.416 18.2498C156.416 21.512 153.809 24.1262 150.577 24.1262C147.301 24.1262 144.693 21.512 144.693 18.2498Z" fill="#FB651E"/>
<path fill-rule="evenodd" clip-rule="evenodd" d="M174.802 17.3177V23.8704H171.98V17.8153C171.98 16.1173 171.154 15.0448 169.905 15.0448C168.634 15.0448 167.697 16.1173 167.697 17.8153V23.8704H164.972V17.8153C164.972 16.1173 164.121 15.0448 162.865 15.0448C161.609 15.0448 160.69 16.1173 160.69 17.8153V23.8704H157.868V12.6501H160.69V14.0863C161.381 13.0091 162.452 12.3359 163.767 12.3359C165.194 12.3359 166.331 13.1438 167.022 14.4005C167.735 13.2785 169.051 12.3359 170.7 12.3359C173.175 12.3359 174.802 14.5351 174.802 17.3177Z" fill="#FB651E"/>
<path fill-rule="evenodd" clip-rule="evenodd" d="M184.833 18.3694C184.833 16.4925 183.674 15.1519 182.047 15.1519C180.464 15.1519 179.261 16.4255 179.261 18.347C179.261 20.2462 180.486 21.5423 182.091 21.5423C183.674 21.5199 184.833 20.2016 184.833 18.3694ZM182.643 24.1603C181.085 24.1603 179.934 23.4466 179.279 22.4654V23.8703H176.457V8.25952H179.279V14.0132C179.956 13.0989 181.108 12.4297 182.598 12.4297C185.489 12.4297 187.701 14.9275 187.747 18.295C187.792 21.7071 185.534 24.1603 182.643 24.1603Z" fill="#FB651E"/>
<path fill-rule="evenodd" clip-rule="evenodd" d="M188.914 23.8705H191.737V12.6502H188.914V23.8705ZM188.554 9.46882C188.554 8.50794 189.357 7.79297 190.315 7.79297C191.251 7.79297 192.031 8.50794 192.031 9.46882C192.031 10.4294 191.251 11.1444 190.315 11.1444C189.357 11.1444 188.554 10.4294 188.554 9.46882Z" fill="#FB651E"/>
<path fill-rule="evenodd" clip-rule="evenodd" d="M203.902 17.3626V23.8704H201.177V17.9718C201.177 16.1618 200.236 15.0448 198.867 15.0448C197.365 15.0448 196.311 16.4077 196.311 18.0164V23.8704H193.586V12.6501H196.311V14.0639C197.066 13.0091 198.287 12.3359 199.707 12.3359C202.216 12.3359 203.902 14.4902 203.902 17.3626Z" fill="#FB651E"/>
<path fill-rule="evenodd" clip-rule="evenodd" d="M212.467 18.8934V18.6518L209.614 19.2105C208.656 19.4338 208.076 19.9254 208.076 20.5733C208.076 21.2632 208.714 21.7873 209.745 21.7562C211.243 21.7109 212.467 20.3956 212.467 18.8934ZM215.192 17.1004V23.8705H212.467V22.5745C211.641 23.4682 210.345 24.1386 208.916 24.161C207.017 24.161 205.341 22.9097 205.341 20.7647C205.341 18.7315 206.861 17.5696 209.117 17.1227L212.4 16.4971C212.176 15.5587 211.462 14.8437 210.39 14.8437C209.318 14.8437 208.312 15.514 207.709 16.363L205.654 14.866C206.704 13.3913 208.558 12.4082 210.39 12.4082C213.137 12.4082 215.192 14.3075 215.192 17.1004Z" fill="#FB651E"/>
<path fill-rule="evenodd" clip-rule="evenodd" d="M220.934 15.187V19.8956C220.934 20.8116 221.335 21.2362 222.16 21.2362H223.561V23.8705H221.77C219.381 23.8705 218.209 22.6997 218.209 20.2455V15.187H216.165V12.6502H218.111V9.8797L220.934 9.0083V12.6502H223.561V15.187H220.934Z" fill="#FB651E"/>
<path fill-rule="evenodd" clip-rule="evenodd" d="M233.374 18.2498C233.374 16.44 232.059 15.077 230.365 15.077C228.626 15.077 227.312 16.44 227.312 18.2498C227.312 20.0596 228.626 21.4226 230.365 21.4226C232.036 21.4226 233.374 20.0596 233.374 18.2498ZM224.48 18.2498C224.48 14.9876 227.089 12.3734 230.365 12.3734C233.597 12.3734 236.204 14.9876 236.204 18.2498C236.204 21.512 233.597 24.1262 230.365 24.1262C227.089 24.1262 224.48 21.512 224.48 18.2498Z" fill="#FB651E"/>
<path fill-rule="evenodd" clip-rule="evenodd" d="M244 12.4043V15.1301C241.479 15.1301 240.399 16.359 240.399 17.9677V23.8703H237.674V12.6501H240.399V14.0576C241.164 13.0523 242.402 12.4043 244 12.4043Z" fill="#FB651E"/>
<path d="M0.794434 21.2554V10.3562H3.06155V14.454H3.13074C3.23008 14.2341 3.37377 14.0106 3.56181 13.7835C3.7534 13.5529 4.00175 13.3613 4.30687 13.2087C4.61554 13.0526 4.99871 12.9746 5.45639 12.9746C6.05244 12.9746 6.60237 13.1307 7.10614 13.4429C7.61 13.7516 8.01263 14.2181 8.31424 14.8426C8.61584 15.4634 8.76657 16.2422 8.76657 17.1788C8.76657 18.0907 8.61933 18.8605 8.32485 19.4885C8.03393 20.113 7.6366 20.5866 7.13281 20.9095C6.63252 21.2288 6.07195 21.3884 5.45107 21.3884C5.01113 21.3884 4.63683 21.3157 4.32816 21.1703C4.02303 21.0248 3.77291 20.8421 3.57777 20.6221C3.38264 20.3986 3.23362 20.1733 3.13074 19.9462H3.02962V21.2554H0.794434ZM3.01366 17.1682C3.01366 17.6543 3.08106 18.0783 3.21588 18.4401C3.35071 18.802 3.54584 19.0841 3.80129 19.2863C4.05674 19.485 4.36718 19.5843 4.73262 19.5843C5.1016 19.5843 5.41382 19.4832 5.66927 19.281C5.92472 19.0752 6.11808 18.7914 6.24935 18.4295C6.38417 18.0641 6.45158 17.6436 6.45158 17.1682C6.45158 16.6963 6.38594 16.2812 6.25467 15.9229C6.1234 15.5645 5.93004 15.2843 5.67459 15.082C5.41914 14.8798 5.10515 14.7787 4.73262 14.7787C4.36364 14.7787 4.05142 14.8762 3.79597 15.0714C3.54407 15.2665 3.35071 15.5432 3.21588 15.9016C3.08106 16.26 3.01366 16.6821 3.01366 17.1682Z" fill="white"/>
<path d="M12.6097 21.4095C12.0881 21.4095 11.6233 21.319 11.2153 21.1381C10.8073 20.9536 10.4845 20.6822 10.2468 20.3239C10.0126 19.962 9.89551 19.5114 9.89551 18.9721C9.89551 18.518 9.97887 18.1366 10.1457 17.8279C10.3124 17.5192 10.5394 17.2709 10.8268 17.0828C11.1142 16.8948 11.4406 16.7529 11.806 16.6571C12.1751 16.5613 12.5618 16.4939 12.9662 16.4549C13.4417 16.4052 13.8248 16.359 14.1157 16.3165C14.4067 16.2704 14.6178 16.2029 14.749 16.1143C14.8803 16.0256 14.946 15.8943 14.946 15.7204V15.6885C14.946 15.3515 14.8395 15.0907 14.6266 14.9062C14.4173 14.7217 14.1193 14.6295 13.7326 14.6295C13.3246 14.6295 12.9999 14.7199 12.7587 14.9009C12.5174 15.0783 12.3578 15.3018 12.2797 15.5714L10.1829 15.4012C10.2893 14.9044 10.4986 14.4751 10.8109 14.1133C11.1231 13.7478 11.5258 13.4675 12.019 13.2724C12.5156 13.0737 13.0904 12.9744 13.7432 12.9744C14.1974 12.9744 14.632 13.0276 15.0471 13.134C15.4657 13.2404 15.8365 13.4054 16.1593 13.629C16.4858 13.8524 16.743 14.1399 16.931 14.4911C17.1191 14.8388 17.213 15.2557 17.213 15.7417V21.2552H15.0631V20.1216H14.9992C14.8679 20.3771 14.6923 20.6024 14.4723 20.7975C14.2524 20.9891 13.988 21.1399 13.6793 21.2499C13.3707 21.3563 13.0141 21.4095 12.6097 21.4095ZM13.2589 19.8449C13.5924 19.8449 13.8869 19.7792 14.1423 19.648C14.3978 19.5132 14.5982 19.3322 14.7437 19.1052C14.8892 18.8781 14.9619 18.6209 14.9619 18.3335V17.466C14.891 17.5121 14.7934 17.5547 14.6692 17.5937C14.5486 17.6292 14.412 17.6629 14.2594 17.6949C14.1069 17.7232 13.9543 17.7498 13.8018 17.7747C13.6492 17.796 13.5108 17.8155 13.3866 17.8332C13.1206 17.8722 12.8882 17.9344 12.6895 18.0195C12.4908 18.1046 12.3365 18.22 12.2265 18.3654C12.1165 18.5073 12.0615 18.6847 12.0615 18.8976C12.0615 19.2063 12.1733 19.4422 12.3968 19.6054C12.6238 19.7651 12.9112 19.8449 13.2589 19.8449Z" fill="white"/>
<path d="M22.6659 21.4148C21.8286 21.4148 21.1083 21.2374 20.5052 20.8827C19.9056 20.5243 19.4444 20.0276 19.1215 19.3925C18.8022 18.7575 18.6426 18.0266 18.6426 17.1999C18.6426 16.3626 18.804 15.6282 19.1269 14.9967C19.4533 14.3616 19.9163 13.8667 20.5159 13.5119C21.1155 13.1535 21.8286 12.9744 22.6552 12.9744C23.3684 12.9744 23.9928 13.1039 24.5285 13.3629C25.0643 13.6218 25.4883 13.9855 25.8005 14.4538C26.1127 14.9222 26.2848 15.4721 26.3167 16.1036H24.1773C24.117 15.6956 23.9573 15.3674 23.6984 15.1191C23.4429 14.8671 23.1076 14.7412 22.6925 14.7412C22.3413 14.7412 22.0344 14.837 21.7719 15.0286C21.5128 15.2166 21.3106 15.4916 21.1652 15.8535C21.0197 16.2154 20.9469 16.6535 20.9469 17.168C20.9469 17.6895 21.0179 18.1331 21.1598 18.4985C21.3053 18.8639 21.5093 19.1424 21.7719 19.334C22.0344 19.5256 22.3413 19.6214 22.6925 19.6214C22.9515 19.6214 23.1839 19.5682 23.3897 19.4617C23.599 19.3553 23.7711 19.201 23.9059 18.9987C24.0443 18.793 24.1347 18.5464 24.1773 18.259H26.3167C26.2812 18.8834 26.1109 19.4333 25.8058 19.9088C25.5042 20.3806 25.0873 20.7496 24.5551 21.0157C24.023 21.2818 23.3932 21.4148 22.6659 21.4148Z" fill="white"/>
<path d="M29.8223 18.9031L29.8276 16.1837H30.1576L32.776 13.081H35.3783L31.8606 17.1895H31.3231L29.8223 18.9031ZM27.7681 21.2554V10.3562H30.0352V21.2554H27.7681ZM32.8771 21.2554L30.4716 17.6951L31.983 16.0932L35.5327 21.2554H32.8771Z" fill="white"/>
<path d="M39.8795 21.4148C39.0386 21.4148 38.3148 21.2445 37.7082 20.904C37.105 20.5598 36.6402 20.0737 36.3138 19.4457C35.9874 18.8142 35.8242 18.0674 35.8242 17.2053C35.8242 16.3644 35.9874 15.6265 36.3138 14.9913C36.6402 14.3563 37.0997 13.8613 37.6922 13.5066C38.2882 13.1518 38.9872 12.9744 39.789 12.9744C40.3283 12.9744 40.8304 13.0613 41.2951 13.2351C41.7634 13.4054 42.1715 13.6627 42.5191 14.0068C42.8704 14.3509 43.1436 14.7838 43.3387 15.3053C43.5338 15.8233 43.6314 16.43 43.6314 17.1254V17.7481H36.729V16.3431H41.4973C41.4973 16.0167 41.4264 15.7276 41.2844 15.4757C41.1426 15.2238 40.9456 15.0268 40.6937 14.8849C40.4454 14.7394 40.1562 14.6667 39.8263 14.6667C39.4821 14.6667 39.177 14.7466 38.9109 14.9062C38.6483 15.0623 38.4426 15.2734 38.2936 15.5395C38.1445 15.802 38.0683 16.0948 38.0647 16.4176V17.7534C38.0647 18.1578 38.1392 18.5073 38.2882 18.8018C38.4408 19.0963 38.6555 19.3233 38.9322 19.483C39.209 19.6427 39.5371 19.7225 39.9168 19.7225C40.1686 19.7225 40.3993 19.687 40.6086 19.6161C40.8179 19.5451 40.9971 19.4387 41.1461 19.2967C41.2951 19.1548 41.4086 18.981 41.4867 18.7752L43.5835 18.9136C43.4771 19.4174 43.2589 19.8573 42.929 20.2334C42.6025 20.6059 42.1803 20.8969 41.6623 21.1062C41.1479 21.312 40.5536 21.4148 39.8795 21.4148Z" fill="white"/>
<path d="M48.1226 21.3884C47.5017 21.3884 46.9394 21.2288 46.4356 20.9095C45.9354 20.5866 45.538 20.113 45.2435 19.4885C44.9526 18.8605 44.8071 18.0907 44.8071 17.1788C44.8071 16.2422 44.9579 15.4634 45.2595 14.8426C45.5611 14.2181 45.962 13.7516 46.4622 13.4429C46.966 13.1307 47.5177 12.9746 48.1173 12.9746C48.575 12.9746 48.9564 13.0526 49.2615 13.2087C49.5702 13.3613 49.8185 13.5529 50.0066 13.7835C50.1982 14.0106 50.3437 14.2341 50.443 14.454H50.5121V10.3562H52.774V21.2554H50.5388V19.9462H50.443C50.3365 20.1733 50.1857 20.3986 49.9906 20.6221C49.799 20.8421 49.5489 21.0248 49.2402 21.1703C48.9351 21.3157 48.5626 21.3884 48.1226 21.3884ZM48.8411 19.5843C49.2065 19.5843 49.5152 19.485 49.7671 19.2863C50.0225 19.0841 50.2177 18.802 50.3525 18.4401C50.4908 18.0783 50.56 17.6543 50.56 17.1682C50.56 16.6821 50.4927 16.26 50.3578 15.9016C50.223 15.5432 50.0279 15.2665 49.7724 15.0714C49.517 14.8762 49.2065 14.7787 48.8411 14.7787C48.4686 14.7787 48.1546 14.8798 47.8991 15.082C47.6437 15.2843 47.4503 15.5645 47.319 15.9229C47.1878 16.2812 47.1222 16.6963 47.1222 17.1682C47.1222 17.6436 47.1878 18.0641 47.319 18.4295C47.4539 18.7914 47.6472 19.0752 47.8991 19.281C48.1546 19.4832 48.4686 19.5843 48.8411 19.5843Z" fill="white"/>
<path d="M58.1494 21.2554V10.3562H60.4165V14.454H60.4857C60.585 14.2341 60.7287 14.0106 60.9168 13.7835C61.1084 13.5529 61.3567 13.3613 61.6618 13.2087C61.9705 13.0526 62.3537 12.9746 62.8114 12.9746C63.4073 12.9746 63.9575 13.1307 64.4614 13.4429C64.9647 13.7516 65.3674 14.2181 65.669 14.8426C65.9706 15.4634 66.1217 16.2422 66.1217 17.1788C66.1217 18.0907 65.9744 18.8605 65.6796 19.4885C65.3887 20.113 64.9915 20.5866 64.4876 20.9095C63.9874 21.2288 63.4267 21.3884 62.806 21.3884C62.3661 21.3884 61.9918 21.3157 61.6831 21.1703C61.378 21.0248 61.1278 20.8421 60.9327 20.6221C60.7376 20.3986 60.5886 20.1733 60.4857 19.9462H60.3846V21.2554H58.1494ZM60.3686 17.1682C60.3686 17.6543 60.436 18.0783 60.5708 18.4401C60.7057 18.802 60.9008 19.0841 61.1562 19.2863C61.4117 19.485 61.7221 19.5843 62.0876 19.5843C62.4566 19.5843 62.7688 19.4832 63.0239 19.281C63.2799 19.0752 63.4729 18.7914 63.604 18.4295C63.7389 18.0641 63.8063 17.6436 63.8063 17.1682C63.8063 16.6963 63.7408 16.2812 63.6096 15.9229C63.4785 15.5645 63.2849 15.2843 63.0295 15.082C62.7741 14.8798 62.4601 14.7787 62.0876 14.7787C61.7186 14.7787 61.4064 14.8762 61.1509 15.0714C60.899 15.2665 60.7057 15.5432 60.5708 15.9016C60.436 16.26 60.3686 16.6821 60.3686 17.1682Z" fill="white"/>
<path d="M68.7704 24.321C68.4832 24.321 68.2135 24.2979 67.9612 24.2518C67.7133 24.2093 67.5072 24.1542 67.3442 24.0868L67.855 22.3945C68.121 22.4761 68.3608 22.5204 68.5737 22.5275C68.7898 22.5347 68.9759 22.4849 69.132 22.3785C69.2918 22.2721 69.4211 22.0911 69.521 21.8357L69.654 21.4898L66.7217 13.0812H69.1058L70.798 19.0843H70.8829L72.5913 13.0812H74.9917L71.8146 22.139C71.6622 22.579 71.4543 22.9621 71.192 23.2885C70.9329 23.6185 70.6044 23.8722 70.2073 24.0496C69.8101 24.2305 69.3312 24.321 68.7704 24.321Z" fill="white"/>
<path fill-rule="evenodd" clip-rule="evenodd" d="M104.729 17.8079V24.7484H102.102V17.8079L95.3945 7.77161H98.5979L103.428 15.1865L108.233 7.77161H111.436L104.729 17.8079Z" fill="white"/>
</g>
<defs>
<clipPath id="clip0_548_691">
<rect width="243.529" height="31.2216" fill="white" transform="translate(0.471191 0.64917)"/>
</clipPath>
</defs>
</svg>
