<svg width="120" height="60" viewBox="0 0 120 60" fill="none" xmlns="http://www.w3.org/2000/svg">
<path d="M7.503 17.42H32.663V42.58H7.503V17.42Z" fill="white"/>
<path d="M19.245 31.677L14.885 23.542H16.898L19.414 28.658C19.414 28.742 19.498 28.826 19.582 28.91C19.666 28.994 19.666 29.078 19.75 29.245L19.834 29.329V29.413C19.918 29.581 19.918 29.665 20.002 29.833C20.086 29.917 20.086 30.085 20.17 30.168C20.254 29.916 20.422 29.748 20.505 29.413C20.589 29.161 20.757 28.91 20.925 28.658L23.441 23.542H25.286L20.926 31.762V36.962H19.249L19.245 31.677Z" fill="#161616"/>
<path d="M42.735 26.265C43.795 26.265 44.715 26.548 45.423 27.115L44.716 27.965C44.079 27.541 43.443 27.258 42.666 27.258C41.463 27.258 40.544 27.895 40.049 29.098C39.766 29.805 39.625 30.725 39.625 31.928C39.625 32.848 39.765 33.626 39.979 34.192C40.545 35.536 41.465 36.172 42.879 36.172C43.657 36.172 44.365 35.96 45.001 35.465L45.708 36.385C44.788 36.951 43.808 37.235 42.738 37.235C41.465 37.235 40.404 36.74 39.555 35.679C38.705 34.679 38.352 33.345 38.352 31.719C38.352 30.093 38.776 28.819 39.625 27.759C40.403 26.839 41.465 26.273 42.738 26.273L42.735 26.265ZM46.767 33.268C46.767 31.995 47.05 31.004 47.687 30.298C48.324 29.592 49.102 29.166 50.092 29.166C51.224 29.166 52.142 29.59 52.78 30.51C53.275 31.217 53.487 32.208 53.487 33.41C53.487 34.825 53.063 35.957 52.284 36.664C51.6983 37.1786 50.9415 37.456 50.162 37.442C49.102 37.442 48.322 37.088 47.686 36.31C47.049 35.603 46.766 34.542 46.766 33.268H46.767ZM51.719 31.218C51.365 30.581 50.869 30.218 50.092 30.218C49.315 30.218 48.819 30.501 48.465 31.068C48.182 31.492 48.111 32.2 48.111 33.118C48.111 34.321 48.251 35.168 48.606 35.665C48.961 36.162 49.456 36.443 50.162 36.443C51.012 36.443 51.577 36.019 51.86 35.24C52 34.816 52.072 34.24 52.072 33.542C52.142 32.482 52.002 31.702 51.718 31.208L51.719 31.218ZM55.749 31.358C55.749 30.58 55.679 29.943 55.466 29.458L56.669 29.175C56.881 29.529 56.952 29.953 56.952 30.307V30.377C57.235 30.094 57.518 29.811 57.952 29.599C58.447 29.316 58.872 29.175 59.296 29.175C59.933 29.175 60.499 29.458 60.852 29.953C60.922 30.093 61.064 30.307 61.135 30.448C61.985 29.598 62.762 29.175 63.611 29.175C64.177 29.175 64.671 29.387 65.026 29.741C65.38 30.165 65.592 30.661 65.592 31.227V37.097H64.3V31.297C64.3 30.519 63.946 30.165 63.3 30.165C62.946 30.165 62.522 30.305 62.168 30.589C62.028 30.729 61.744 30.943 61.39 31.226L61.25 31.366V37.096H59.906V31.57C59.906 31.075 59.836 30.72 59.694 30.57C59.482 30.358 59.27 30.287 58.916 30.287C58.35 30.287 57.713 30.641 56.936 31.347V37.147H55.75L55.749 31.358ZM67.776 25.982L69.049 25.699C69.189 26.265 69.261 26.902 69.261 27.679V30.296C69.968 29.589 70.747 29.236 71.525 29.236C72.445 29.236 73.223 29.59 73.718 30.296C74.284 31.003 74.568 31.994 74.568 33.196C74.568 34.469 74.285 35.46 73.718 36.238C73.151 37.016 72.374 37.37 71.454 37.37C71.0356 37.3778 70.622 37.2805 70.251 37.087C69.827 36.875 69.544 36.663 69.331 36.38L69.119 37.23H67.916C68.056 36.876 68.128 36.23 68.128 35.25V27.82C68.058 26.97 67.988 26.334 67.774 25.98L67.776 25.982ZM69.826 30.782C69.614 30.922 69.402 31.136 69.26 31.348V35.4C69.755 36.037 70.392 36.32 71.16 36.32C71.797 36.32 72.292 36.108 72.575 35.613C72.929 35.047 73.141 34.269 73.141 33.137C73.141 32.137 73.001 31.439 72.646 31.015C72.363 30.591 71.868 30.378 71.16 30.378C70.736 30.308 70.24 30.448 69.816 30.802L69.826 30.782ZM76.406 26.982C76.406 26.699 76.476 26.487 76.689 26.275C76.902 26.063 77.113 25.992 77.396 25.992C77.679 25.992 77.891 26.062 78.103 26.275C78.315 26.488 78.386 26.699 78.386 26.982C78.386 27.265 78.316 27.477 78.103 27.689C77.89 27.901 77.679 27.972 77.396 27.972C77.113 27.972 76.901 27.902 76.689 27.689C76.477 27.476 76.406 27.265 76.406 26.982ZM76.7 37.16V29.38L77.973 29.168V37.162L76.7 37.16ZM80.722 31.358C80.722 30.792 80.722 30.438 80.652 30.298C80.652 30.086 80.512 29.874 80.369 29.52L81.572 29.166C81.7655 29.537 81.8628 29.9506 81.855 30.369C82.633 29.591 83.482 29.166 84.331 29.166C84.755 29.166 85.109 29.236 85.463 29.449C85.817 29.662 86.1 29.944 86.241 30.299C86.381 30.582 86.453 30.865 86.453 31.219V37.161H85.25V31.856C85.25 31.219 85.18 30.796 84.967 30.583C84.8568 30.4697 84.7247 30.3799 84.5788 30.3191C84.4328 30.2582 84.2761 30.2276 84.118 30.229C83.835 30.229 83.411 30.369 82.986 30.583C82.5929 30.7838 82.2347 31.0465 81.925 31.361V37.161H80.722V31.358ZM89.282 31.075L88.645 30.225C89.705 29.518 90.767 29.165 91.899 29.165C93.031 29.165 93.739 29.589 94.092 30.368C94.232 30.651 94.232 31.075 94.232 31.712V32.136L94.162 34.683V35.037C94.162 35.461 94.162 35.744 94.232 35.957C94.302 36.24 94.515 36.452 94.798 36.594L94.161 37.444C93.595 37.232 93.241 36.878 93.101 36.312C92.394 37.019 91.615 37.372 90.837 37.372C90.059 37.372 89.422 37.16 88.937 36.735C88.513 36.381 88.3 35.815 88.3 35.108C88.2814 34.7031 88.3696 34.3004 88.5558 33.9404C88.7421 33.5804 89.0198 33.2757 89.361 33.057C90.068 32.562 91.129 32.35 92.403 32.35H92.969V31.784C92.969 31.147 92.899 30.724 92.686 30.581C92.5519 30.4361 92.3872 30.3228 92.2038 30.2495C92.0205 30.1761 91.8231 30.1445 91.626 30.157C91.202 30.157 90.706 30.297 90.14 30.511L89.29 31.077L89.282 31.075ZM93.032 35.249L93.102 33.199H92.465C91.333 33.199 90.625 33.411 90.201 33.836C89.918 34.119 89.777 34.543 89.777 35.109C89.777 36.029 90.201 36.524 91.121 36.524C91.5226 36.501 91.9106 36.3708 92.2448 36.1469C92.579 35.923 92.847 35.6136 93.021 35.251L93.032 35.249ZM98.266 29.377H100.246L99.892 30.377H98.265V35.4C98.265 35.824 98.335 36.107 98.477 36.32C98.617 36.46 98.901 36.603 99.255 36.603C99.538 36.603 99.821 36.533 100.033 36.463L100.173 37.241C99.749 37.453 99.323 37.524 98.829 37.524C97.626 37.524 97.061 36.958 97.061 35.756V30.38H96V29.38H97V29.24C97 29.1 97.07 28.533 97.14 27.613V27.4L98.413 27.117C98.273 27.967 98.273 28.744 98.273 29.381L98.266 29.377ZM101.52 33.267C101.52 31.994 101.803 31.003 102.44 30.297C103.006 29.59 103.855 29.165 104.845 29.165C105.977 29.165 106.895 29.589 107.533 30.509C108.028 31.216 108.24 32.207 108.24 33.409C108.24 34.824 107.816 35.956 107.037 36.663C106.451 37.1776 105.695 37.455 104.915 37.441C103.855 37.441 103.075 37.087 102.439 36.309C101.873 35.602 101.519 34.541 101.519 33.267H101.52ZM106.543 31.217C106.189 30.58 105.693 30.217 104.916 30.217C104.139 30.217 103.643 30.5 103.289 31.067C103.006 31.491 102.935 32.199 102.935 33.117C102.935 34.32 103.075 35.167 103.43 35.664C103.785 36.161 104.28 36.442 104.986 36.442C105.836 36.442 106.401 36.018 106.684 35.239C106.824 34.815 106.896 34.239 106.896 33.541C106.896 32.481 106.756 31.701 106.542 31.207L106.543 31.217ZM110.573 31.215C110.573 30.508 110.503 29.942 110.29 29.517L111.493 29.163C111.687 29.534 111.784 29.9476 111.776 30.366V30.506C112.413 29.656 113.12 29.233 113.969 29.233C114.109 29.233 114.252 29.233 114.393 29.303L113.898 30.647C113.758 30.577 113.615 30.577 113.544 30.577C113.261 30.577 112.907 30.647 112.624 30.86C112.341 31.073 112.058 31.284 111.917 31.567C111.824 31.8404 111.776 32.1272 111.776 32.416V37.296H110.573V31.215Z" fill="white"/>
</svg>
