<svg width="24" height="24" viewBox="0 0 24 24" fill="none" xmlns="http://www.w3.org/2000/svg">
<path d="M17.6985 15.89L13.8185 12L17.7085 8.11C18.0985 7.72 18.0985 7.09 17.7085 6.7C17.3185 6.31 16.6885 6.31 16.2985 6.7L11.7085 11.29C11.3185 11.68 11.3185 12.31 11.7085 12.7L16.2985 17.29C16.6885 17.68 17.3185 17.68 17.7085 17.29C18.0885 16.91 18.0885 16.27 17.6985 15.89ZM6.99854 6C7.54854 6 7.99854 6.45 7.99854 7V17C7.99854 17.55 7.54854 18 6.99854 18C6.44854 18 5.99854 17.55 5.99854 17V7C5.99854 6.45 6.44854 6 6.99854 6Z" fill="#B8B8B8"/>
</svg>
