<svg width="24" height="24" viewBox="0 0 24 24" fill="none" xmlns="http://www.w3.org/2000/svg">
<path d="M15.89 6.30122L12 10.1812L8.11 6.29122C7.72 5.90122 7.09 5.90122 6.7 6.29122C6.31 6.68122 6.31 7.31122 6.7 7.70122L11.29 12.2912C11.68 12.6812 12.31 12.6812 12.7 12.2912L17.29 7.70122C17.68 7.31122 17.68 6.68122 17.29 6.29122C16.91 5.91122 16.27 5.91122 15.89 6.30122ZM6 17.0012C6 16.4512 6.45 16.0012 7 16.0012L17 16.0012C17.55 16.0012 18 16.4512 18 17.0012C18 17.5512 17.55 18.0012 17 18.0012L7 18.0012C6.45 18.0012 6 17.5512 6 17.0012Z" fill="#B8B8B8"/>
</svg>
