<svg width="20" height="20" viewBox="0 0 20 20" fill="none" xmlns="http://www.w3.org/2000/svg">
<path opacity="0.2" d="M2.5 16.25L4.85755 9.17736C4.89903 9.05291 4.97862 8.94467 5.08503 8.86797C5.19145 8.79127 5.3193 8.75 5.45047 8.75H16.25V6.875C16.25 6.70924 16.1842 6.55027 16.0669 6.43306C15.9497 6.31585 15.7908 6.25 15.625 6.25H10.2083C10.0731 6.25 9.94152 6.20614 9.83333 6.125L7.66667 4.5C7.55848 4.41886 7.4269 4.375 7.29167 4.375H3.125C2.95924 4.375 2.80027 4.44085 2.68306 4.55806C2.56585 4.67527 2.5 4.83424 2.5 5V16.25Z" fill="white"/>
<path d="M2.5 16.25V5C2.5 4.83424 2.56585 4.67527 2.68306 4.55806C2.80027 4.44085 2.95924 4.375 3.125 4.375H7.29167C7.4269 4.375 7.55848 4.41886 7.66667 4.5L9.83333 6.125C9.94152 6.20614 10.0731 6.25 10.2083 6.25H15.625C15.7908 6.25 15.9497 6.31585 16.0669 6.43306C16.1842 6.55027 16.25 6.70924 16.25 6.875V8.75" stroke="white" stroke-width="1.25" stroke-linecap="round" stroke-linejoin="round"/>
<path d="M2.5 16.25L4.85755 9.17736C4.89903 9.05291 4.97862 8.94467 5.08503 8.86797C5.19145 8.79127 5.3193 8.75 5.45047 8.75H17.8829C17.9819 8.75 18.0795 8.77353 18.1677 8.81866C18.2558 8.86379 18.332 8.92922 18.3899 9.00956C18.4478 9.0899 18.4858 9.18284 18.5007 9.28074C18.5156 9.37864 18.5071 9.47869 18.4758 9.57264L16.25 16.25H2.5Z" fill="white" stroke="white" stroke-width="1.25" stroke-linecap="round" stroke-linejoin="round"/>
</svg>
