<svg width="34" height="34" viewBox="0 0 34 34" fill="none" xmlns="http://www.w3.org/2000/svg">
<g filter="url(#filter0_d_1245_10089)">
<path d="M2 4.2C2 3.0799 2 2.51984 2.21799 2.09202C2.40973 1.71569 2.71569 1.40973 3.09202 1.21799C3.51984 1 4.07989 1 5.2 1H30.8C31.9201 1 32.4802 1 32.908 1.21799C33.2843 1.40973 33.5903 1.71569 33.782 2.09202C34 2.51984 34 3.07989 34 4.2V29.8C34 30.9201 34 31.4802 33.782 31.908C33.5903 32.2843 33.2843 32.5903 32.908 32.782C32.4802 33 31.9201 33 30.8 33H5.2C4.0799 33 3.51984 33 3.09202 32.782C2.71569 32.5903 2.40973 32.2843 2.21799 31.908C2 31.4802 2 30.9201 2 29.8V4.2Z" fill="#1C1C1C"/>
<path d="M5.2 1.5H30.8C31.3683 1.5 31.7645 1.50039 32.0729 1.52559C32.3755 1.55031 32.5493 1.5964 32.681 1.66349C32.9632 1.8073 33.1927 2.03677 33.3365 2.31901C33.4036 2.45069 33.4497 2.62454 33.4744 2.92712C33.4996 3.23554 33.5 3.6317 33.5 4.2V29.8C33.5 30.3683 33.4996 30.7645 33.4744 31.0729C33.4497 31.3755 33.4036 31.5493 33.3365 31.681C33.1927 31.9632 32.9632 32.1927 32.681 32.3365C32.5493 32.4036 32.3755 32.4497 32.0729 32.4744C31.7645 32.4996 31.3683 32.5 30.8 32.5H5.2C4.6317 32.5 4.23554 32.4996 3.92712 32.4744C3.62454 32.4497 3.45069 32.4036 3.31901 32.3365C3.03677 32.1927 2.8073 31.9632 2.66349 31.681C2.5964 31.5493 2.55031 31.3755 2.52559 31.0729C2.50039 30.7645 2.5 30.3683 2.5 29.8V4.2C2.5 3.6317 2.50039 3.23554 2.52559 2.92712C2.55031 2.62454 2.5964 2.45069 2.66349 2.31901C2.8073 2.03677 3.03677 1.8073 3.31901 1.66349C3.45069 1.5964 3.62454 1.55031 3.92712 1.52559C4.23554 1.50039 4.6317 1.5 5.2 1.5Z" stroke="#474747"/>
<path d="M21.3332 7.83325H14.6665C13.2832 7.83325 12.1665 8.94992 12.1665 10.3333V23.6666C12.1665 25.0499 13.2832 26.1666 14.6665 26.1666H21.3332C22.7165 26.1666 23.8332 25.0499 23.8332 23.6666V10.3333C23.8332 8.94992 22.7165 7.83325 21.3332 7.83325ZM19.2498 24.4999H16.7498C16.5165 24.4999 16.3332 24.3166 16.3332 24.0833C16.3332 23.8499 16.5165 23.6666 16.7498 23.6666H19.2498C19.4832 23.6666 19.6665 23.8499 19.6665 24.0833C19.6665 24.3166 19.4832 24.4999 19.2498 24.4999ZM22.1665 21.9999H13.8332V10.3333H22.1665V21.9999Z" fill="#F7F7F7"/>
</g>
<defs>
<filter id="filter0_d_1245_10089" x="0" y="0" width="36" height="36" filterUnits="userSpaceOnUse" color-interpolation-filters="sRGB">
<feFlood flood-opacity="0" result="BackgroundImageFix"/>
<feColorMatrix in="SourceAlpha" type="matrix" values="0 0 0 0 0 0 0 0 0 0 0 0 0 0 0 0 0 0 127 0" result="hardAlpha"/>
<feOffset dy="1"/>
<feGaussianBlur stdDeviation="1"/>
<feComposite in2="hardAlpha" operator="out"/>
<feColorMatrix type="matrix" values="0 0 0 0 0.0627451 0 0 0 0 0.0941176 0 0 0 0 0.156863 0 0 0 0.04 0"/>
<feBlend mode="normal" in2="BackgroundImageFix" result="effect1_dropShadow_1245_10089"/>
<feBlend mode="normal" in="SourceGraphic" in2="effect1_dropShadow_1245_10089" result="shape"/>
</filter>
</defs>
</svg>
