<svg width="24" height="25" viewBox="0 0 24 25" fill="none" xmlns="http://www.w3.org/2000/svg">
<path d="M8.11 18.0886L12 14.1986L15.89 18.0886C16.28 18.4786 16.91 18.4786 17.3 18.0886C17.69 17.6986 17.69 17.0686 17.3 16.6786L12.71 12.0886C12.32 11.6986 11.69 11.6986 11.3 12.0886L6.7 16.6786C6.31 17.0686 6.31 17.6986 6.7 18.0886C7.09 18.4686 7.73 18.4686 8.11 18.0886ZM6 7.3786C6 6.8286 6.45 6.3786 7 6.3786L17 6.3786C17.55 6.3786 18 6.8286 18 7.3786C18 7.9286 17.55 8.3786 17 8.3786L7 8.3786C6.45 8.3786 6 7.9286 6 7.3786Z" fill="#B8B8B8"/>
</svg>
